<svg width="273" height="33" viewBox="0 0 273 33" fill="none" xmlns="http://www.w3.org/2000/svg">
<path d="M6.51001 14.9901H11.03C13.48 15.0001 15.4201 14.4901 16.8301 13.4501C18.2801 12.4101 19 10.7601 19 8.49007C19.01 6.38007 18.3701 4.84007 17.0901 3.85007C15.8401 2.86007 14.0901 2.36008 11.8501 2.36008H7.12988L7.13989 0.590073H12.5801C16.7601 0.610073 19.98 1.23008 22.21 2.46008C24.45 3.66008 25.5701 5.68008 25.5601 8.51008C25.5601 11.4201 24.29 13.5201 21.75 14.8201C19.24 16.1001 15.8501 16.7301 11.5901 16.7201H6.51001V14.9901ZM0 30.8601V30.6201C0.75 30.2501 1.29989 29.8801 1.63989 29.5001C2.01989 29.1001 2.26991 28.5701 2.40991 27.9001C2.53991 27.2301 2.61011 26.2601 2.61011 24.9801L2.6499 6.46008C2.6499 5.13008 2.57995 4.14008 2.44995 3.50008C2.31995 2.83008 2.06995 2.31008 1.69995 1.94008C1.34995 1.54008 0.800059 1.16008 0.0600586 0.820076V0.580078H4.41992L9.02002 0.600075L8.96997 25.0001C8.96997 26.2801 9.02992 27.2501 9.16992 27.9201C9.32992 28.5901 9.6 29.1201 10 29.5201C10.4 29.9001 11.0201 30.2701 11.8401 30.6401V30.8801H7.04004L4.36011 30.8701H0V30.8601Z" fill="#1F2023"/>
<path d="M76.5417 31.5605C73.4017 31.5605 70.6518 30.9005 68.3118 29.5805C65.9618 28.2405 64.1516 26.4005 62.8816 24.0505C61.6316 21.6705 61.0117 18.9905 61.0117 16.0105C61.0217 12.8405 61.7218 10.0605 63.1118 7.69047C64.5218 5.29047 66.4516 3.46047 68.8816 2.18047C71.3316 0.880466 74.0916 0.230469 77.1616 0.230469C80.8916 0.230469 84.0716 1.19046 86.6816 3.09046C89.2916 4.99046 91.0316 7.70047 91.9016 11.2205H85.8218C85.3718 8.46047 84.4217 6.27046 82.9517 4.64046C81.4917 3.01046 79.6017 2.19047 77.2817 2.19047C75.3017 2.19047 73.6117 2.76047 72.1917 3.90047C70.7817 5.02047 69.7017 6.55046 68.9517 8.49046C68.2017 10.4105 67.8218 12.5305 67.8118 14.8505C67.8118 17.4405 68.2217 19.7005 69.0417 21.6505C69.8617 23.6005 71.0716 25.1105 72.6716 26.1805C74.2716 27.2505 76.2217 27.7905 78.5117 27.7905C81.6017 27.7905 84.1218 26.8805 86.0718 25.0405C88.0518 23.2005 89.3216 20.6905 89.8916 17.4905H92.1716C91.7416 20.3505 90.8417 22.8205 89.4817 24.9305C88.1417 27.0305 86.3717 28.6705 84.1917 29.8405C82.0016 30.9805 79.4517 31.5505 76.5417 31.5505V31.5605Z" fill="#1F2023"/>
<path d="M101.889 17.5298L113.349 5.26976C114.069 4.46976 114.659 3.74976 115.109 3.10976C115.569 2.46976 115.989 1.80976 116.399 1.10976L116.559 0.789764H123.119V1.15977C121.809 1.47977 120.739 1.85976 119.909 2.30976C119.009 2.75976 118.149 3.39977 117.349 4.22977L102.119 19.6798L101.889 17.5198V17.5298ZM94.5391 31.0398V30.7998C95.2891 30.4298 95.839 30.0498 96.179 29.6798C96.559 29.2798 96.809 28.7498 96.949 28.0798C97.079 27.4098 97.1489 26.4398 97.1489 25.1598L97.189 6.63976C97.189 5.30976 97.119 4.31976 96.989 3.67976C96.859 3.00976 96.609 2.48977 96.229 2.11977C95.889 1.71977 95.3391 1.33976 94.5991 0.999763V0.759766H98.959L101.799 0.76976H106.159V1.01976C105.409 1.36976 104.849 1.73976 104.469 2.13976C104.099 2.50976 103.849 3.02976 103.709 3.69976C103.599 4.33976 103.549 5.32977 103.549 6.65977L103.509 25.1798C103.509 26.4598 103.559 27.4298 103.669 28.0998C103.799 28.7698 104.049 29.2998 104.419 29.6998C104.799 30.0698 105.349 30.4498 106.099 30.8198V31.0598H101.739L98.8989 31.0498H94.5391V31.0398ZM105.169 15.4198L109.059 11.8698L123.939 30.7798V31.0998H116.299L105.169 15.4298V15.4198Z" fill="#1F2023"/>
<path d="M131.21 29.2703L137.33 29.2403C138.64 29.2403 139.78 29.1403 140.77 28.9303C141.79 28.7203 142.83 28.3903 143.89 27.9403C144.99 27.4903 146.38 26.8403 148.06 25.9903V31.1503L131.21 31.1203V29.2803V29.2703ZM125.09 31.1003V30.8603C125.84 30.4903 126.38 30.1203 126.73 29.7403C127.1 29.3403 127.36 28.8103 127.49 28.1403C127.63 27.4703 127.7 26.5003 127.7 25.2203L127.73 6.70031C127.73 5.37031 127.67 4.38031 127.54 3.74031C127.41 3.07031 127.15 2.55031 126.78 2.18031C126.43 1.78031 125.89 1.40031 125.14 1.06031V0.820312H129.5L134.1 0.840309L134.05 31.1203H129.45L125.09 31.1003ZM144.91 16.5403C143.37 16.4303 141.78 16.3503 140.15 16.2903C138.55 16.2303 137.18 16.2003 136.03 16.2003H131.87V14.4303H136.03C138.29 14.4403 141.26 14.3403 144.91 14.1303V16.5303V16.5403ZM147.09 5.78031C146.64 5.59031 146.09 5.36031 145.46 5.10031C144.02 4.46031 142.86 3.99032 141.98 3.69032C141.1 3.37032 140.26 3.13031 139.46 2.97031C138.69 2.78031 137.85 2.69032 136.94 2.69032H131.1V0.840309L147.1 0.870316V5.79031L147.09 5.78031Z" fill="#1F2023"/>
<path d="M174.6 25.75H179.84L179.83 31.2H174.59L174.6 25.75Z" fill="#1F2023"/>
<path d="M207.16 31.2497V31.0097C207.91 30.6397 208.45 30.2697 208.8 29.8897C209.17 29.4897 209.43 28.9597 209.56 28.2897C209.7 27.6197 209.77 26.6497 209.77 25.3697L209.8 6.84972C209.81 5.51972 209.74 4.52972 209.61 3.88972C209.48 3.21972 209.22 2.69973 208.85 2.32973C208.51 1.92973 207.96 1.55972 207.21 1.20972V0.969727H211.57L214.41 0.979729H218.81V1.22973C218.04 1.56973 217.47 1.94972 217.09 2.34972C216.74 2.71972 216.5 3.23973 216.37 3.90973C216.23 4.54973 216.17 5.53973 216.16 6.86973L216.13 25.3897C216.13 26.6697 216.19 27.6397 216.32 28.3097C216.46 28.9797 216.69 29.5097 217.04 29.9097C217.41 30.2797 217.97 30.6597 218.72 31.0297V31.2697H214.36L211.52 31.2597H207.16V31.2497Z" fill="#1F2023"/>
<path d="M228.35 15.41H232.87C235.33 15.42 237.26 14.91 238.68 13.87C240.12 12.83 240.84 11.18 240.85 8.91C240.85 6.8 240.21 5.26 238.93 4.27C237.68 3.28 235.94 2.78 233.7 2.78H228.98V1.01H234.42C238.61 1.03 241.82 1.65 244.06 2.88C246.3 4.08 247.41 6.1 247.41 8.93C247.4 11.84 246.13 13.94 243.59 15.24C241.09 16.52 237.7 17.15 233.43 17.14H228.35V15.41ZM221.84 31.28V31.04C222.59 30.67 223.14 30.3 223.49 29.92C223.86 29.52 224.12 28.99 224.25 28.32C224.38 27.65 224.45 26.68 224.46 25.4L224.49 6.88C224.49 5.55 224.43 4.56 224.3 3.92C224.16 3.25 223.91 2.73 223.54 2.36C223.19 1.96 222.65 1.58 221.9 1.24V1H226.26L230.86 1.02L230.82 25.42C230.81 26.7 230.88 27.67 231.01 28.34C231.17 29.01 231.45 29.54 231.85 29.94C232.25 30.31 232.86 30.69 233.69 31.06V31.3H228.88H226.2L221.84 31.29V31.28Z" fill="#1F2023"/>
<path d="M261.62 32.0296C259.33 32.0296 257.26 31.6396 255.42 30.8596C253.61 30.0796 252.13 28.9296 250.99 27.4096C249.84 25.8596 249.13 23.9796 248.84 21.7696H254.44C254.73 24.3096 255.46 26.3596 256.63 27.9096C257.82 29.4596 259.52 30.2496 261.7 30.2796C263.25 30.2796 264.49 29.8996 265.42 29.1296C266.36 28.3296 266.83 27.2396 266.83 25.8496C266.86 24.8596 266.61 23.9796 266.08 23.2096C265.54 22.4396 264.8 21.7296 263.84 21.0896C262.91 20.4196 261.54 19.5796 259.72 18.5596L259.16 18.2396L258.76 18.0396C256.85 16.9696 255.32 16.0196 254.17 15.1896C253.02 14.3596 252.09 13.3996 251.38 12.2996C250.68 11.1796 250.34 9.89957 250.34 8.45957C250.35 6.80957 250.79 5.38957 251.67 4.21957C252.55 3.01957 253.75 2.11957 255.28 1.50957C256.82 0.869575 258.57 0.55957 260.52 0.55957C262.52 0.55957 264.34 0.899572 266 1.56957C267.65 2.20957 269.02 3.18957 270.11 4.49957C271.23 5.80957 271.97 7.41957 272.34 9.33957H266.82C266.69 7.99957 266.37 6.80957 265.87 5.76957C265.36 4.69957 264.66 3.85957 263.75 3.24957C262.85 2.63957 261.78 2.30957 260.55 2.27957C259.09 2.27957 257.93 2.62957 257.07 3.34957C256.24 4.06957 255.83 5.03957 255.83 6.26957C255.82 7.25957 256.1 8.13958 256.66 8.90958C257.22 9.65958 257.97 10.3696 258.9 11.0296C259.86 11.6696 261.2 12.4596 262.93 13.3996L263.21 13.5596L263.49 13.7196C265.54 14.8696 267.16 15.8696 268.33 16.7296C269.53 17.5596 270.5 18.5496 271.24 19.6996C271.99 20.8496 272.36 22.1896 272.35 23.7396C272.35 25.4496 271.88 26.9296 270.95 28.1796C270.04 29.4296 268.77 30.3896 267.14 31.0496C265.54 31.7096 263.7 32.0396 261.62 32.0396V32.0296Z" fill="#1F2023"/>
<path d="M42.6516 0.55957L46.0518 7.48957L53.3618 4.98957L50.8618 12.2896L57.7917 15.6896L50.8618 19.0896L53.3618 26.3896L46.0518 23.8896L42.6516 30.8196L39.2517 23.8896L31.9417 26.3896L34.4417 19.0896L27.5117 15.6896L34.4417 12.2896L31.9417 4.98957L39.2517 7.48957L42.6516 0.55957Z" fill="#1F2023"/>
<path d="M165.771 2.65035H159.291C158.441 2.64035 157.641 2.73035 156.891 2.91035C156.141 3.07035 155.361 3.32035 154.531 3.67035C153.731 3.99035 152.611 4.49035 151.171 5.18035C150.661 5.39035 150.121 5.62035 149.531 5.86035V0.860352L165.781 0.910355" fill="#1F2023"/>
<path d="M156.762 31.1506V30.9106C157.482 30.5406 158.032 30.1706 158.402 29.7906C158.772 29.3906 159.032 28.8606 159.162 28.1906C159.302 27.5206 159.362 26.5506 159.372 25.2706L159.412 1.35059H165.772L165.732 25.2806C165.732 26.5606 165.782 27.5306 165.882 28.2006C166.012 28.8706 166.272 29.4006 166.642 29.8006C167.012 30.1706 167.572 30.5506 168.322 30.9206V31.1606H163.962L161.122 31.1506H156.762Z" fill="#1F2023"/>
<path d="M159.52 0.900352L175.76 0.860352V5.86035C175.18 5.62035 174.629 5.40035 174.129 5.18035C172.689 4.49035 171.57 3.98035 170.77 3.67035C169.94 3.32035 169.159 3.07035 168.409 2.91035C167.659 2.73035 166.86 2.63035 166.01 2.63035H159.53" fill="#1F2023"/>
<path d="M188.68 0.939651L204.92 0.889648V5.88965C204.34 5.64965 203.79 5.42965 203.29 5.20965C201.85 4.51965 200.73 4.00965 199.93 3.69965C199.1 3.34965 198.32 3.09965 197.57 2.93965C196.82 2.75965 196.02 2.65965 195.17 2.65965H188.69" fill="#1F2023"/>
<path d="M193.333 31.1894H190.493L186.133 31.1994V30.9594C186.883 30.5894 187.433 30.2094 187.813 29.8394C188.183 29.4394 188.443 28.9094 188.573 28.2394C188.673 27.5694 188.733 26.5994 188.723 25.3194L188.683 1.39941H195.043L195.083 25.3094C195.083 26.5894 195.153 27.5594 195.293 28.2294C195.423 28.8994 195.683 29.4294 196.053 29.8294C196.423 30.1994 196.973 30.5694 197.693 30.9494V31.1894H193.333Z" fill="#1F2023"/>
<path d="M194.931 2.67965H188.451C187.601 2.66965 186.802 2.75965 186.052 2.93965C185.302 3.09965 184.521 3.34965 183.691 3.69965C182.891 4.01965 181.772 4.51965 180.332 5.20965C179.822 5.41965 179.281 5.64965 178.691 5.88965V0.889648L194.941 0.929649" fill="#1F2023"/>
</svg>
