<svg width="214" height="25" viewBox="0 0 214 25" fill="none" xmlns="http://www.w3.org/2000/svg">
<path d="M80.0605 13.5931L89.0652 3.95976C89.6309 3.33116 90.0945 2.76542 90.4481 2.26254C90.8096 1.75965 91.1396 1.24106 91.4539 0.691028L91.5796 0.439587H96.7341V0.730318C95.7048 0.981759 94.864 1.28034 94.2197 1.63393C93.5047 1.98752 92.8368 2.49041 92.2082 3.14258L80.2412 15.2825L80.0526 13.5852L80.0605 13.5931ZM74.2852 24.2086V24.0201C74.8745 23.7293 75.3066 23.4307 75.5738 23.14C75.8645 22.8257 76.0688 22.4093 76.171 21.8828C76.281 21.3564 76.3282 20.5942 76.336 19.5884L76.3596 5.03625C76.3596 3.99119 76.3124 3.2133 76.2103 2.71041C76.1081 2.18396 75.9117 1.77537 75.6131 1.48464C75.3381 1.17034 74.9138 0.871751 74.3245 0.604595V0.416016H77.7504H79.9819L83.4078 0.423869V0.612454C82.8185 0.887468 82.3784 1.17819 82.0877 1.49249C81.797 1.78322 81.5927 2.19182 81.4906 2.71827C81.4041 3.22116 81.3648 3.99905 81.3648 5.0441L81.3334 19.5963C81.3334 20.602 81.3727 21.3642 81.4591 21.8907C81.5612 22.4171 81.7577 22.8336 82.0563 23.1479C82.347 23.4386 82.787 23.7372 83.3763 24.0279V24.2165H79.9505H77.7189L74.293 24.2086H74.2852ZM82.6377 11.9352L85.6943 9.14574L97.3863 24.0043V24.2558L91.3832 24.2479L82.6377 11.943V11.9352Z" fill="#1E1E1E"/>
<path d="M103.098 22.8186L107.907 22.795C108.936 22.795 109.832 22.7164 110.61 22.5514C111.403 22.3864 112.221 22.1271 113.061 21.7735C113.918 21.4199 115.01 20.9092 116.33 20.2413V24.2958L103.09 24.2722V22.8264L103.098 22.8186ZM98.2891 24.2565V24.0679C98.8784 23.7772 99.3106 23.4865 99.5777 23.1879C99.8684 22.8736 100.073 22.4571 100.175 21.9307C100.277 21.4042 100.332 20.642 100.34 19.6363L100.363 5.0841C100.363 4.03904 100.316 3.26115 100.214 2.75827C100.112 2.23181 99.9078 1.82322 99.617 1.53249C99.342 1.21819 98.9177 0.919603 98.3284 0.652446V0.463867H101.754L105.369 0.47958L105.322 24.2722H101.707L98.2812 24.2565H98.2891ZM113.871 12.8159C112.653 12.7295 111.411 12.6666 110.13 12.6195C108.873 12.5723 107.797 12.5488 106.893 12.5488H103.624V11.158H106.893C108.677 11.1658 111.003 11.0873 113.871 10.9223V12.8081V12.8159ZM115.584 4.3612C115.23 4.21191 114.798 4.03119 114.295 3.82689C113.163 3.32401 112.252 2.95471 111.56 2.71898C110.869 2.46754 110.209 2.27896 109.58 2.15324C108.975 2.00395 108.315 1.93323 107.6 1.93323H103.011V0.47958L115.584 0.503157V4.36906V4.3612Z" fill="#1E1E1E"/>
<path d="M137.195 20.0518H141.313L141.305 24.3341H137.188V20.0518H137.195Z" fill="#72C0A2"/>
<path d="M162.777 24.3737V24.1851C163.367 23.8944 163.791 23.6036 164.066 23.305C164.357 22.9907 164.561 22.5743 164.663 22.0478C164.773 21.5214 164.828 20.7592 164.828 19.7534L164.852 5.20128C164.86 4.15623 164.805 3.37834 164.702 2.87545C164.6 2.349 164.396 1.94041 164.105 1.64968C163.838 1.33538 163.406 1.04465 162.817 0.769634V0.581055H166.243L168.474 0.588914H171.931V0.785352C171.326 1.05251 170.879 1.35109 170.58 1.66539C170.305 1.95612 170.116 2.36472 170.014 2.89117C169.904 3.39405 169.857 4.17195 169.849 5.217L169.826 19.7692C169.826 20.7749 169.873 21.5371 169.975 22.0636C170.085 22.59 170.266 23.0065 170.541 23.3208C170.831 23.6115 171.271 23.9101 171.861 24.2008V24.3894H168.435L166.203 24.3815H162.777V24.3737Z" fill="#1E1E1E"/>
<path d="M179.424 11.9272H182.975C184.908 11.9351 186.425 11.5343 187.541 10.7171C188.672 9.89996 189.238 8.60347 189.246 6.81981C189.246 5.16187 188.743 3.9518 187.737 3.1739C186.755 2.39601 185.388 2.00313 183.628 2.00313H179.919V0.612351H184.193C187.486 0.628066 190.008 1.11523 191.768 2.08171C193.528 3.02461 194.4 4.61184 194.4 6.83552C194.392 9.12206 193.395 10.7721 191.399 11.7936C189.434 12.7994 186.771 13.2944 183.415 13.2866H179.424V11.9272ZM174.309 24.3971V24.2085C174.898 23.9178 175.33 23.6271 175.605 23.3285C175.896 23.0142 176.1 22.5977 176.202 22.0713C176.304 21.5448 176.359 20.7826 176.367 19.7769L176.391 5.22472C176.391 4.17967 176.344 3.40177 176.242 2.89889C176.132 2.37244 175.935 1.96385 175.644 1.67312C175.369 1.35882 174.945 1.06023 174.356 0.793071V0.604492H177.782L181.396 0.620205L181.365 19.7926C181.365 20.7984 181.412 21.5605 181.514 22.087C181.64 22.6134 181.86 23.0299 182.174 23.3442C182.488 23.6349 182.968 23.9335 183.62 24.2242V24.4128H179.84H177.734L174.309 24.405V24.3971Z" fill="#1E1E1E"/>
<path d="M205.569 24.9865C203.77 24.9865 202.143 24.68 200.698 24.0671C199.275 23.4542 198.112 22.5506 197.217 21.3563C196.313 20.1384 195.755 18.6611 195.527 16.9246H199.928C200.155 18.9204 200.729 20.5312 201.648 21.7492C202.583 22.9671 203.919 23.5878 205.632 23.6114C206.85 23.6114 207.824 23.3128 208.555 22.7078C209.294 22.0792 209.663 21.2227 209.663 20.1305C209.687 19.3526 209.49 18.6611 209.074 18.0561C208.649 17.4511 208.068 16.8932 207.314 16.3903C206.583 15.8639 205.506 15.2038 204.076 14.4024L203.636 14.1509L203.322 13.9938C201.821 13.153 200.619 12.4065 199.715 11.7544C198.812 11.1022 198.081 10.3479 197.523 9.48354C196.973 8.6035 196.706 7.59773 196.706 6.46624C196.714 5.16975 197.06 4.05398 197.751 3.13465C198.442 2.19175 199.385 1.48457 200.588 1.00526C201.798 0.502376 203.173 0.258789 204.705 0.258789C206.276 0.258789 207.707 0.525947 209.011 1.0524C210.307 1.55528 211.384 2.32532 212.24 3.35466C213.12 4.384 213.702 5.64906 213.993 7.15771H209.655C209.553 6.1048 209.302 5.16975 208.909 4.35257C208.508 3.51181 207.958 2.85178 207.243 2.37247C206.536 1.89316 205.695 1.63386 204.728 1.61029C203.581 1.61029 202.67 1.8853 201.994 2.45104C201.342 3.01679 201.02 3.77897 201.02 4.74544C201.012 5.52334 201.232 6.21481 201.672 6.81984C202.112 7.40915 202.701 7.96703 203.432 8.48563C204.186 8.98851 205.239 9.60926 206.599 10.3479L206.819 10.4736L207.039 10.5993C208.649 11.5029 209.922 12.2887 210.842 12.9644C211.785 13.6166 212.547 14.3945 213.128 15.2981C213.718 16.2017 214.008 17.2546 214 18.4726C214 19.8162 213.631 20.9791 212.9 21.9613C212.185 22.9435 211.187 23.6978 209.907 24.2164C208.649 24.735 207.204 24.9943 205.569 24.9943V24.9865Z" fill="#1E1E1E"/>
<path d="M39.0531 22.693L34.9043 18.3163L33.0421 24.0602L31.6356 18.1906L27.1568 22.2294L28.8776 16.4463L22.9766 17.7113L27.3532 13.5625L21.6094 11.7003L27.4789 10.2938L23.4402 5.815L29.2233 7.5358L27.9661 1.63479L32.1149 6.01144L33.9771 0.267578L35.3837 6.13716L39.8624 2.09839L38.1416 7.88153L44.0426 6.62433L39.666 10.7731L45.4098 12.6353L39.5403 14.0418L43.5791 18.5206L37.7959 16.7998L39.0531 22.7008V22.693Z" fill="#72C0A2"/>
<path d="M130.253 1.90162H125.161C124.493 1.89376 123.865 1.96448 123.275 2.10591C122.686 2.23164 122.073 2.42807 121.421 2.70308C120.792 2.95452 119.912 3.3474 118.781 3.88957C118.38 4.05458 117.956 4.2353 117.492 4.42389V0.495117L130.261 0.534407" fill="#1E1E1E"/>
<path d="M123.176 24.2963V24.1077C123.742 23.817 124.174 23.5263 124.464 23.2277C124.755 22.9134 124.959 22.4969 125.062 21.9705C125.172 21.444 125.219 20.6819 125.227 19.6761L125.258 0.880859H130.255L130.224 19.6839C130.224 20.6897 130.263 21.4519 130.342 21.9783C130.444 22.5048 130.648 22.9213 130.939 23.2356C131.23 23.5263 131.67 23.8249 132.259 24.1156V24.3042H128.833L126.602 24.2963H123.176Z" fill="#1E1E1E"/>
<path d="M125.344 0.526548L138.104 0.495117V4.42389C137.649 4.2353 137.216 4.06244 136.824 3.88957C135.692 3.3474 134.812 2.94667 134.183 2.70308C133.531 2.42807 132.918 2.23164 132.329 2.10591C131.74 1.96448 131.111 1.8859 130.443 1.8859H125.352" fill="#1E1E1E"/>
<path d="M148.258 0.556868L161.018 0.517578V4.44635C160.563 4.25777 160.131 4.0849 159.738 3.91203C158.606 3.36986 157.726 2.96913 157.098 2.72554C156.445 2.45053 155.832 2.2541 155.243 2.12838C154.654 1.98694 154.025 1.90837 153.357 1.90837H148.266" fill="#1E1E1E"/>
<path d="M151.911 24.3256H149.68L146.254 24.3334V24.1449C146.843 23.8541 147.275 23.5555 147.574 23.2648C147.865 22.9505 148.069 22.5341 148.171 22.0076C148.25 21.4811 148.297 20.719 148.289 19.7132L148.258 0.917969H153.255L153.286 19.7053C153.286 20.7111 153.341 21.4733 153.451 21.9997C153.554 22.5262 153.758 22.9426 154.049 23.2569C154.339 23.5477 154.771 23.8384 155.337 24.137V24.3256H151.911Z" fill="#1E1E1E"/>
<path d="M153.167 1.92408H148.075C147.407 1.91622 146.779 1.98694 146.189 2.12838C145.6 2.2541 144.987 2.45053 144.335 2.72554C143.706 2.97699 142.826 3.36986 141.695 3.91203C141.294 4.07704 140.87 4.25777 140.406 4.44635V0.517578L153.175 0.549009" fill="#1E1E1E"/>
<path d="M5.11526 11.5971H8.66689C10.592 11.605 12.1163 11.2042 13.2242 10.3871C14.3636 9.56988 14.9293 8.27338 14.9293 6.48972C14.9372 4.83178 14.4343 3.62172 13.4286 2.84383C12.4464 2.06593 11.0713 1.67305 9.31116 1.67305H5.60243L5.61029 0.282267H9.8848C13.1692 0.297982 15.6994 0.785152 17.4516 1.75163C19.2117 2.69453 20.0917 4.28176 20.0839 6.50544C20.0839 8.79198 19.086 10.4421 17.0901 11.4636C15.1179 12.4693 12.4542 12.9643 9.10691 12.9565H5.11526V11.5971ZM0 24.067V23.8784C0.589315 23.5877 1.02149 23.297 1.28865 22.9984C1.58723 22.6841 1.78364 22.2677 1.89365 21.7412C1.99579 21.2147 2.05081 20.4526 2.05081 19.4468L2.08227 4.89464C2.08227 3.84959 2.02725 3.0717 1.92511 2.56881C1.82296 2.04236 1.62652 1.63377 1.33579 1.34304C1.06078 1.02874 0.628601 0.73015 0.0471433 0.462993V0.274414H3.47302L7.08751 0.290126L7.04819 19.4625C7.04819 20.4683 7.09534 21.2305 7.20535 21.7569C7.33107 22.2834 7.54324 22.6998 7.85754 23.0141C8.17184 23.3127 8.65903 23.6034 9.30335 23.8942V24.0828H5.53169L3.42587 24.0749H0V24.067Z" fill="#1E1E1E"/>
<path d="M60.1441 24.6177C57.6769 24.6177 55.5161 24.0991 53.6774 23.0619C51.8309 22.009 50.4087 20.5632 49.4108 18.7167C48.4286 16.8466 47.9414 14.7407 47.9414 12.3992C47.9493 9.90835 48.4993 7.72396 49.5915 5.86172C50.6994 3.97591 52.2159 2.53798 54.1253 1.53222C56.0504 0.510738 58.219 0 60.6313 0C63.5622 0 66.0609 0.754318 68.1117 2.24725C70.1625 3.74018 71.5297 5.86958 72.2134 8.63543H67.436C67.0824 6.46675 66.3359 4.74595 65.1808 3.46517C64.0336 2.18439 62.5486 1.54008 60.7256 1.54008C59.1698 1.54008 57.8419 1.98796 56.7261 2.88371C55.6182 3.76376 54.7696 4.96596 54.1803 6.49032C53.591 7.99897 53.2924 9.66477 53.2845 11.4877C53.2845 13.5228 53.6067 15.2986 54.251 16.8308C54.8953 18.3631 55.8461 19.5495 57.1033 20.3903C58.3605 21.2311 59.8927 21.6554 61.6921 21.6554C64.1201 21.6554 66.1002 20.9403 67.6324 19.4945C69.1882 18.0488 70.1861 16.0765 70.634 13.5621H72.4255C72.0876 15.8094 71.3804 17.7502 70.3118 19.4081C69.2589 21.0582 67.8681 22.3468 66.1552 23.2662C64.4344 24.1619 62.4307 24.6098 60.1441 24.6098V24.6177Z" fill="#1E1E1E"/>
</svg>
