<svg width="214" height="26" viewBox="0 0 214 26" fill="none" xmlns="http://www.w3.org/2000/svg">
<path d="M80.0604 13.8267L89.0651 4.19106C89.6309 3.56231 90.0945 2.99644 90.4481 2.49344C90.8095 1.99044 91.1396 1.47172 91.4617 0.921562L91.5875 0.670062H96.742V0.960861C95.7126 1.21236 94.8719 1.51101 94.2197 1.86469C93.5125 2.21836 92.8367 2.72136 92.2081 3.37369L80.2411 15.5164L80.0604 13.8188V13.8267ZM74.2852 24.4447V24.2561C74.8745 23.9653 75.3066 23.6666 75.5738 23.3758C75.8724 23.0614 76.0687 22.6449 76.1788 22.1183C76.2809 21.5917 76.336 20.8294 76.336 19.8234L76.3673 5.2678C76.3673 4.2225 76.3124 3.44442 76.2102 2.94142C76.1081 2.41484 75.9116 2.00616 75.613 1.71536C75.3459 1.40099 74.9137 1.10233 74.3323 0.835108V0.646484H77.7581L79.9897 0.654339H83.4156V0.850824C82.8263 1.1259 82.3862 1.4167 82.0876 1.73108C81.7969 2.02187 81.6005 2.43056 81.4905 2.95714C81.404 3.46014 81.3648 4.23823 81.3648 5.28352L81.3333 19.8391C81.3333 20.8451 81.3727 21.6075 81.4591 22.1341C81.5612 22.6606 81.7577 23.0772 82.0484 23.3915C82.347 23.6823 82.7791 23.981 83.3684 24.2718V24.4604H79.9425L77.711 24.4526H74.2852V24.4447ZM82.6377 12.1683L85.6943 9.37826L97.3862 24.2404V24.4919H91.3832L82.6377 12.1762V12.1683Z" fill="#1E1E1E"/>
<path d="M103.098 23.0543L107.907 23.0307C108.936 23.0307 109.832 22.9521 110.61 22.7871C111.411 22.622 112.228 22.3627 113.061 22.009C113.926 21.6553 115.018 21.1445 116.338 20.4764V24.5319L103.098 24.5083V23.0622V23.0543ZM98.2891 24.4926V24.3039C98.8784 24.0131 99.3027 23.7223 99.5777 23.4237C99.8684 23.1093 100.073 22.6928 100.175 22.1662C100.285 21.6396 100.34 20.8772 100.34 19.8712L100.363 5.31565C100.363 4.27035 100.316 3.49228 100.214 2.98928C100.112 2.4627 99.9078 2.05401 99.617 1.76321C99.342 1.44884 98.9177 1.15018 98.3284 0.88296V0.694336H101.754L105.369 0.710052L105.329 24.5083H101.715L98.2891 24.4926ZM113.863 13.0493C112.653 12.9628 111.403 12.9 110.123 12.8528C108.865 12.8056 107.789 12.7821 106.885 12.7821H103.616L103.624 11.391H106.893C108.669 11.3988 111.003 11.3202 113.871 11.1552V13.0414L113.863 13.0493ZM115.576 4.59259C115.222 4.44326 114.79 4.2625 114.295 4.05815C113.163 3.55515 112.252 3.18576 111.56 2.94998C110.869 2.69848 110.209 2.50986 109.58 2.38411C108.975 2.23478 108.315 2.16404 107.6 2.16404H103.011V0.710052L115.584 0.733635V4.60045L115.576 4.59259Z" fill="#1E1E1E"/>
<path d="M137.191 20.2871H141.309L141.301 24.5705H137.184L137.191 20.2871Z" fill="#EE754E"/>
<path d="M162.777 24.6097V24.4211C163.367 24.1303 163.791 23.8395 164.066 23.5409C164.357 23.2265 164.561 22.8099 164.663 22.2834C164.773 21.7568 164.828 20.9944 164.828 19.9884L164.852 5.43284C164.86 4.38754 164.805 3.60946 164.702 3.10646C164.6 2.57988 164.396 2.1712 164.105 1.8804C163.838 1.56603 163.406 1.27523 162.817 1.00015V0.811523H166.242L168.474 0.819385H171.931V1.01587C171.326 1.28309 170.878 1.58174 170.58 1.89612C170.305 2.18691 170.116 2.59561 170.014 3.12219C169.904 3.62519 169.857 4.40326 169.849 5.44856L169.826 20.0041C169.826 21.0101 169.873 21.7725 169.975 22.2991C170.085 22.8257 170.266 23.2422 170.541 23.5566C170.831 23.8474 171.271 24.146 171.861 24.4368V24.6255H168.435L166.203 24.6176H162.777V24.6097Z" fill="#1E1E1E"/>
<path d="M179.428 12.1603H182.979C184.912 12.1682 186.429 11.7674 187.545 10.95C188.676 10.1326 189.242 8.83582 189.25 7.05174C189.25 5.39341 188.747 4.18306 187.741 3.40498C186.759 2.6269 185.392 2.23393 183.632 2.23393H179.923V0.842822H184.197C187.49 0.858541 190.012 1.34582 191.772 2.31252C193.532 3.25565 194.404 4.84325 194.404 7.06745C194.396 9.35454 193.398 11.005 191.403 12.0267C189.438 13.0327 186.775 13.5279 183.419 13.52H179.428V12.1603ZM174.312 24.6332V24.4446C174.902 24.1538 175.334 23.863 175.609 23.5643C175.9 23.2499 176.104 22.8334 176.206 22.3068C176.308 21.7802 176.363 21.0179 176.371 20.0119L176.395 5.45628C176.395 4.41098 176.348 3.6329 176.246 3.1299C176.136 2.60332 175.939 2.19464 175.648 1.90384C175.373 1.58946 174.949 1.2908 174.36 1.02358V0.834961H177.786L181.4 0.850677L181.369 20.0276C181.369 21.0336 181.416 21.7959 181.518 22.3225C181.644 22.8491 181.864 23.2657 182.178 23.58C182.492 23.8708 182.971 24.1695 183.624 24.4603V24.6489H179.844H177.738L174.312 24.641V24.6332Z" fill="#1E1E1E"/>
<path d="M205.569 25.2227C203.77 25.2227 202.143 24.9162 200.698 24.3032C199.275 23.6902 198.112 22.7863 197.217 21.5917C196.313 20.3735 195.755 18.8959 195.527 17.159H199.928C200.155 19.1553 200.729 20.7665 201.648 21.9847C202.583 23.2029 203.919 23.8238 205.632 23.8474C206.85 23.8474 207.824 23.5487 208.555 22.9435C209.294 22.3148 209.663 21.4581 209.663 20.3657C209.687 19.5876 209.49 18.8959 209.074 18.2908C208.649 17.6856 208.068 17.1276 207.314 16.6246C206.583 16.098 205.506 15.4378 204.076 14.6362L203.636 14.3847L203.322 14.2275C201.821 13.3865 200.619 12.6399 199.715 11.9875C198.812 11.3352 198.081 10.5807 197.523 9.71618C196.973 8.83593 196.706 7.82993 196.706 6.69817C196.714 5.40138 197.06 4.28534 197.751 3.3658C198.443 2.42267 199.385 1.71533 200.588 1.2359C201.798 0.732902 203.173 0.489258 204.705 0.489258C206.276 0.489258 207.707 0.756479 209.011 1.28306C210.307 1.78606 211.384 2.55628 212.24 3.58586C213.12 4.61544 213.702 5.8808 213.993 7.3898H209.655C209.553 6.33664 209.302 5.40137 208.909 4.584C208.508 3.74304 207.958 3.08286 207.243 2.60343C206.536 2.12401 205.695 1.86465 204.729 1.84107C203.581 1.84107 202.67 2.11615 201.994 2.68203C201.342 3.2479 201.02 4.01026 201.02 4.97697C201.012 5.75505 201.232 6.44668 201.672 7.05185C202.112 7.6413 202.701 8.19932 203.432 8.71804C204.186 9.22104 205.239 9.84193 206.599 10.5807L206.819 10.7065L207.039 10.8322C208.649 11.736 209.922 12.522 210.842 13.1979C211.785 13.8502 212.547 14.6283 213.128 15.5321C213.718 16.436 214.008 17.4891 214 18.7073C214 20.0513 213.631 21.2145 212.9 22.1969C212.185 23.1793 211.187 23.9338 209.907 24.4525C208.649 24.9713 207.204 25.2306 205.569 25.2306V25.2227Z" fill="#1E1E1E"/>
<path d="M45.402 12.7734H35.4228L44.6476 16.593L44.3647 17.3004L35.1321 13.4807L42.196 20.5385L41.6539 21.0808L34.5979 14.023L38.4087 23.2421L37.7094 23.5329L33.8907 14.3138V24.2953H33.1285V14.3138L29.3097 23.5329L28.6104 23.2421L32.4213 14.023L25.3652 21.0808L24.823 20.5385L31.8869 13.4807L22.6543 17.3004L22.3715 16.6009L31.5962 12.7812H21.6172V12.0189H31.5962L22.3715 8.19922L22.6543 7.49974L31.8869 11.3194L24.823 4.26167L25.3652 3.71937L32.4213 10.7771L28.6104 1.55018L29.3097 1.25938L33.1285 10.4863V0.504883H33.8907V10.4863L37.7094 1.25938L38.4087 1.55018L34.5979 10.7771L41.6539 3.71937L42.196 4.26167L35.1321 11.3194L44.3647 7.49974L44.6476 8.19922L35.4228 12.0189H45.402V12.7812V12.7734Z" fill="#EE754E"/>
<path d="M130.253 2.13209H125.161C124.493 2.12423 123.865 2.19495 123.275 2.33638C122.686 2.4621 122.073 2.65854 121.421 2.93355C120.792 3.18499 119.912 3.57787 118.781 4.12004C118.38 4.28505 117.956 4.46577 117.492 4.65435V0.725586L130.261 0.764876" fill="#1E1E1E"/>
<path d="M123.172 24.5313V24.3427C123.738 24.0519 124.17 23.7611 124.461 23.4624C124.751 23.1481 124.956 22.7315 125.058 22.2049C125.168 21.6784 125.215 20.916 125.223 19.91L125.254 1.11035H130.252L130.22 19.9179C130.22 20.9239 130.259 21.6862 130.338 22.2128C130.44 22.7394 130.644 23.1559 130.935 23.4703C131.226 23.7611 131.666 24.0598 132.255 24.3506V24.5392H128.829L126.598 24.5313H123.172Z" fill="#1E1E1E"/>
<path d="M125.34 0.757017L138.1 0.725586V4.65435C137.645 4.46577 137.213 4.29291 136.82 4.12004C135.688 3.57787 134.808 3.17714 134.18 2.93355C133.527 2.65854 132.915 2.4621 132.325 2.33638C131.736 2.19495 131.107 2.11637 130.439 2.11637H125.348" fill="#1E1E1E"/>
<path d="M148.258 0.788314L161.018 0.749023V4.67779C160.563 4.48921 160.131 4.31634 159.738 4.14348C158.606 3.60131 157.726 3.20057 157.098 2.95699C156.445 2.68198 155.832 2.48554 155.243 2.35982C154.654 2.21838 154.025 2.13981 153.357 2.13981H148.266" fill="#1E1E1E"/>
<path d="M151.915 24.5625H149.684L146.258 24.5704V24.3818C146.847 24.091 147.279 23.7923 147.578 23.5015C147.869 23.1871 148.073 22.7706 148.175 22.244C148.254 21.7174 148.301 20.9551 148.293 19.9491L148.262 1.14941H153.259L153.29 19.9412C153.29 20.9472 153.345 21.7096 153.455 22.2361C153.557 22.7627 153.762 23.1793 154.053 23.4937C154.343 23.7844 154.775 24.0752 155.341 24.3739V24.5625H151.915Z" fill="#1E1E1E"/>
<path d="M153.171 2.15552H148.079C147.411 2.14767 146.783 2.21838 146.193 2.35982C145.604 2.48554 144.991 2.68198 144.339 2.95699C143.71 3.20843 142.83 3.60131 141.699 4.14348C141.298 4.30849 140.874 4.48921 140.41 4.67779V0.749023L153.179 0.780454" fill="#1E1E1E"/>
<path d="M5.11526 11.8303H8.66688C10.592 11.8381 12.1163 11.4373 13.2242 10.6199C14.3635 9.80253 14.9293 8.50574 14.9293 6.72165C14.9372 5.06332 14.4343 3.85298 13.4285 3.0749C12.4463 2.29682 11.0712 1.90385 9.31116 1.90385H5.60243L5.61029 0.512738H9.88474C13.1692 0.528457 15.6993 1.01574 17.4516 1.98245C19.2116 2.92557 20.0918 4.51317 20.0839 6.73738C20.0839 9.02446 19.086 10.6749 17.0901 11.6967C15.1179 12.7027 12.4542 13.1978 9.10686 13.1899H5.11526V11.8303ZM0 24.3031V24.1145C0.589315 23.8237 1.02149 23.5329 1.28865 23.2342C1.58723 22.9199 1.78369 22.5033 1.89369 21.9767C1.99584 21.4501 2.05081 20.6878 2.05081 19.6818L2.08227 5.1262C2.08227 4.0809 2.02721 3.30282 1.92506 2.79982C1.82291 2.27324 1.62647 1.86456 1.33574 1.57376C1.06073 1.25938 0.628649 0.960726 0.0471912 0.693506V0.504883H3.47306L7.08751 0.520599L7.04819 19.6975C7.04819 20.7035 7.09539 21.4659 7.20539 21.9924C7.33111 22.519 7.54323 22.9356 7.85753 23.25C8.17184 23.5486 8.65898 23.8394 9.30329 24.1302V24.3188H5.53174L3.42587 24.311H0V24.3031Z" fill="#1E1E1E"/>
<path d="M60.1442 24.8539C57.6769 24.8539 55.5161 24.3352 53.6774 23.2978C51.8309 22.2446 50.4087 20.7985 49.4108 18.9515C48.4286 17.081 47.9414 14.9747 47.9414 12.6326C47.9493 10.1411 48.4993 7.95624 49.5915 6.09357C50.6994 4.20732 52.2159 2.76905 54.1253 1.76305C56.0504 0.741326 58.2191 0.230469 60.6313 0.230469C63.5622 0.230469 66.0609 0.984964 68.1117 2.47825C70.1625 3.97153 71.5297 6.10143 72.2133 8.86793H67.4359C67.0823 6.69874 66.3358 4.97753 65.1808 3.69645C64.0336 2.41538 62.5486 1.77091 60.7256 1.77091C59.1698 1.77091 57.8418 2.21889 56.7261 3.11486C55.6182 3.99511 54.7696 5.1976 54.1802 6.72232C53.5909 8.23132 53.2924 9.89752 53.2846 11.7209C53.2846 13.7565 53.6067 15.5327 54.251 17.0653C54.8953 18.5978 55.8461 19.7846 57.1033 20.6256C58.3605 21.4665 59.8927 21.8909 61.6921 21.8909C64.1201 21.8909 66.1001 21.1757 67.6323 19.7296C69.1881 18.2835 70.1861 16.3108 70.634 13.7958H72.4255C72.0876 16.0436 71.3804 17.9848 70.3118 19.6431C69.2589 21.2936 67.8681 22.5826 66.1551 23.5021C64.4343 24.3981 62.4307 24.8461 60.1442 24.8461V24.8539Z" fill="#1E1E1E"/>
</svg>
