<svg width="15" height="15" viewBox="0 0 15 15" fill="none" xmlns="http://www.w3.org/2000/svg">
<path d="M1.2045 12.2045C0.765165 12.6438 0.765165 13.3562 1.2045 13.7955C1.64384 14.2348 2.35616 14.2348 2.7955 13.7955L1.2045 12.2045ZM14.4387 1.68629C14.4387 1.06497 13.935 0.561292 13.3137 0.561292H3.18871C2.56739 0.561292 2.06371 1.06497 2.06371 1.68629C2.06371 2.30761 2.56739 2.81129 3.18871 2.81129H12.1887V11.8113C12.1887 12.4326 12.6924 12.9363 13.3137 12.9363C13.935 12.9363 14.4387 12.4326 14.4387 11.8113V1.68629ZM2.7955 13.7955L14.1092 2.48179L12.5182 0.890797L1.2045 12.2045L2.7955 13.7955Z" fill="white"/>
</svg>
