<svg width="77" height="77" viewBox="0 0 77 77" fill="none" xmlns="http://www.w3.org/2000/svg">
<circle id="cursorCircle" cx="38.5" cy="38.5" r="38.5" fill="#4E7BBE"/>
<path d="M21 37C19.8954 37 19 37.8954 19 39C19 40.1046 19.8954 41 21 41V37ZM56.8309 40.4142C57.6119 39.6332 57.6119 38.3668 56.8309 37.5858L44.103 24.8579C43.3219 24.0768 42.0556 24.0768 41.2745 24.8579C40.4935 25.6389 40.4935 26.9052 41.2745 27.6863L52.5882 39L41.2745 50.3137C40.4935 51.0948 40.4935 52.3611 41.2745 53.1421C42.0556 53.9232 43.3219 53.9232 44.103 53.1421L56.8309 40.4142ZM21 41H55.4167V37H21V41Z" fill="black"/>
</svg>
