<svg width="90" height="90" viewBox="0 0 90 90" fill="none" xmlns="http://www.w3.org/2000/svg">
<path d="M90 46.4466H52.2435L87.1273 60.8923L86.0256 63.5591L51.1315 49.1031L77.8401 75.8014L75.8014 77.8401L49.1031 51.1417L63.5488 86.0256L60.8923 87.1273L46.4364 52.2434V90H43.5637V52.2434L29.1077 87.1273L26.4512 86.0256L40.8969 51.1417L14.1986 77.8401L12.1599 75.8014L38.8686 49.1031L3.97437 63.5488L2.87268 60.8923L37.7669 46.4466H0V43.5637H37.7669L2.87268 29.1076L3.97437 26.4512L38.8686 40.9072L12.1599 14.1986L14.1986 12.1599L40.8969 38.8685L26.4512 3.97436L29.1077 2.87268L43.5637 37.7668V0H46.4364V37.7668L60.8923 2.87268L63.5488 3.97436L49.1031 38.8685L75.8014 12.1599L77.8401 14.1986L51.1315 40.9072L86.0256 26.4512L87.1273 29.1076L52.2435 43.5637H90V46.4466Z" fill="#F5EDE0"/>
</svg>
