<svg width="273" height="32" viewBox="0 0 273 32" fill="none" xmlns="http://www.w3.org/2000/svg">
<path d="M101.879 17.4702L113.349 5.21019C114.069 4.41019 114.659 3.69019 115.109 3.05019C115.569 2.41019 115.989 1.75019 116.389 1.05019L116.549 0.730194H123.109V1.1002C121.809 1.4202 120.739 1.80019 119.909 2.25019C118.999 2.70019 118.149 3.34019 117.349 4.16019L102.119 19.6102L101.879 17.4502V17.4702ZM94.5391 30.9802V30.7402C95.2891 30.3702 95.8291 29.9902 96.1791 29.6202C96.5591 29.2202 96.809 28.6902 96.939 28.0202C97.079 27.3502 97.149 26.3802 97.149 25.1002L97.1791 6.58019C97.1791 5.25019 97.119 4.26019 96.989 3.62019C96.859 2.95019 96.609 2.4302 96.229 2.0602C95.889 1.6602 95.339 1.28019 94.589 0.940193V0.700195L106.149 0.720192V0.96019C105.409 1.31019 104.849 1.68019 104.469 2.08019C104.099 2.45019 103.839 2.97019 103.709 3.64019C103.599 4.28019 103.549 5.2702 103.539 6.6002L103.509 25.1202C103.509 26.4002 103.559 27.3702 103.659 28.0402C103.799 28.7102 104.049 29.2402 104.419 29.6402C104.789 30.0102 105.349 30.3902 106.099 30.7602V31.0002L94.5391 30.9802ZM105.169 15.3602L109.049 11.8102L123.939 30.7202V31.0402H116.299L105.169 15.3702V15.3602Z" fill="#F3F7FF"/>
<path d="M131.21 29.2107L137.33 29.1807C138.64 29.1807 139.78 29.0807 140.77 28.8707C141.78 28.6607 142.82 28.3307 143.89 27.8807C144.99 27.4307 146.37 26.7807 148.06 25.9307V31.0907L131.21 31.0607V29.2207V29.2107ZM125.09 31.0407V30.8007C125.83 30.4307 126.38 30.0607 126.73 29.6807C127.1 29.2807 127.36 28.7507 127.49 28.0807C127.63 27.4107 127.69 26.4407 127.7 25.1607L127.73 6.64074C127.73 5.31074 127.67 4.32074 127.54 3.68074C127.4 3.01074 127.15 2.49074 126.78 2.12074C126.43 1.72074 125.89 1.34074 125.14 1.00074V0.760742L134.1 0.780739L134.05 31.0607L125.09 31.0407ZM144.91 16.4807C143.37 16.3707 141.78 16.2907 140.15 16.2307C138.55 16.1707 137.18 16.1507 136.03 16.1407H131.87V14.3707H136.03C138.29 14.3807 141.25 14.2807 144.91 14.0707V16.4707V16.4807ZM147.09 5.72074C146.64 5.53074 146.09 5.30074 145.45 5.04074C144.02 4.40074 142.86 3.93074 141.98 3.63074C141.1 3.31075 140.26 3.07074 139.46 2.90074C138.68 2.71074 137.85 2.62074 136.94 2.62074H131.1V0.770744L147.1 0.800743V5.72074H147.09Z" fill="#F3F7FF"/>
<path d="M174.6 25.6904H179.84L179.83 31.1404H174.59L174.6 25.6904Z" fill="#4E7BBE"/>
<path d="M207.16 31.1902V30.9501C207.9 30.5801 208.45 30.2102 208.8 29.8302C209.17 29.4302 209.43 28.9001 209.56 28.2301C209.7 27.5601 209.76 26.5902 209.77 25.3102L209.8 6.79015C209.8 5.46015 209.74 4.47015 209.61 3.83015C209.47 3.16015 209.22 2.64016 208.85 2.27016C208.5 1.87016 207.96 1.50015 207.21 1.15015V0.910156L218.81 0.930153V1.17016C218.04 1.51016 217.46 1.89015 217.09 2.29015C216.74 2.66015 216.5 3.18016 216.37 3.85016C216.23 4.49016 216.16 5.48016 216.16 6.81016L216.13 25.3302C216.13 26.6102 216.19 27.5802 216.32 28.2502C216.45 28.9202 216.69 29.4502 217.04 29.8502C217.41 30.2202 217.97 30.6002 218.72 30.9702V31.2102L207.16 31.1902Z" fill="#F3F7FF"/>
<path d="M228.35 15.3504H232.87C235.33 15.3604 237.26 14.8504 238.68 13.8104C240.12 12.7704 240.84 11.1204 240.84 8.85043C240.85 6.74043 240.21 5.20043 238.93 4.21043C237.68 3.22043 235.94 2.72043 233.7 2.72043H228.98V0.950432H234.42C238.61 0.970432 241.82 1.59043 244.06 2.82043C246.29 4.02043 247.41 6.04043 247.4 8.87043C247.4 11.7804 246.13 13.8804 243.59 15.1804C241.08 16.4604 237.7 17.0904 233.43 17.0804H228.35V15.3504ZM221.84 31.2204V30.9804C222.59 30.6104 223.14 30.2404 223.49 29.8604C223.86 29.4604 224.11 28.9304 224.25 28.2604C224.38 27.5904 224.45 26.6204 224.45 25.3404L224.49 6.82043C224.49 5.49043 224.43 4.50043 224.29 3.86043C224.16 3.19043 223.91 2.67043 223.54 2.30043C223.19 1.90043 222.65 1.53043 221.9 1.18043V0.94043L230.86 0.960426L230.81 25.3604C230.81 26.6404 230.88 27.6104 231.01 28.2804C231.17 28.9504 231.45 29.4804 231.85 29.8804C232.25 30.2504 232.86 30.6304 233.68 31.0004V31.2404L221.84 31.2204Z" fill="#F3F7FF"/>
<path d="M261.62 31.97C259.32 31.97 257.26 31.58 255.42 30.8C253.61 30.02 252.13 28.87 250.99 27.35C249.84 25.8 249.13 23.92 248.84 21.71H254.44C254.72 24.25 255.45 26.3 256.62 27.85C257.82 29.4 259.51 30.19 261.7 30.22C263.25 30.22 264.49 29.84 265.42 29.07C266.36 28.27 266.83 27.18 266.83 25.79C266.86 24.8 266.61 23.92 266.07 23.15C265.54 22.38 264.8 21.67 263.84 21.03C262.91 20.36 261.53 19.52 259.72 18.5L259.16 18.18L258.76 17.98C256.85 16.91 255.31 15.96 254.17 15.13C253.02 14.3 252.09 13.34 251.37 12.24C250.68 11.12 250.34 9.84 250.34 8.4C250.34 6.75 250.79 5.33 251.67 4.16C252.55 2.96 253.75 2.06 255.27 1.45C256.82 0.810005 258.57 0.5 260.52 0.5C262.52 0.5 264.34 0.840002 265.99 1.51C267.65 2.15 269.02 3.13 270.11 4.44C271.23 5.75 271.97 7.36 272.34 9.28H266.82C266.69 7.94 266.37 6.75 265.87 5.71C265.36 4.64 264.66 3.8 263.75 3.19C262.85 2.58 261.78 2.25 260.55 2.22C259.09 2.22 257.93 2.57 257.07 3.29C256.24 4.01 255.83 4.98 255.83 6.21C255.82 7.2 256.1 8.08001 256.66 8.85001C257.22 9.60001 257.96 10.31 258.9 10.97C259.86 11.61 261.2 12.4 262.93 13.34L263.49 13.66C265.54 14.81 267.15 15.81 268.33 16.67C269.52 17.5 270.5 18.49 271.24 19.64C271.98 20.79 272.36 22.13 272.35 23.68C272.35 25.39 271.88 26.87 270.94 28.12C270.04 29.37 268.77 30.33 267.14 30.99C265.54 31.65 263.7 31.98 261.62 31.98V31.97Z" fill="#F3F7FF"/>
<path d="M57.8202 16.2802C57.7602 17.7702 57.1902 19.0002 56.1302 19.9802C55.6002 20.4702 55.0102 20.8402 54.3402 21.0902C54.3802 21.2002 54.4302 21.3802 54.4802 21.6302C54.7102 22.6302 54.7003 23.5802 54.4303 24.4602C54.1703 25.3502 53.6603 26.1302 52.9203 26.8202C52.0803 27.5902 51.1203 28.0502 50.0303 28.1902C48.9403 28.3302 47.9602 28.1902 47.0902 27.7702C46.7702 28.4202 46.3502 28.9902 45.8402 29.4602C44.7802 30.4402 43.5003 30.9002 42.0203 30.8402C41.3403 30.8102 40.6703 30.6502 40.0303 30.3502C39.3803 30.0502 38.8302 29.6502 38.3502 29.1302C37.9802 28.7302 37.6902 28.3102 37.5002 27.8602C37.4202 27.7502 37.3502 27.5802 37.2602 27.3602L36.7202 27.5002C35.7802 27.7402 34.8403 27.7202 33.9003 27.4402C32.9603 27.1602 32.1602 26.6602 31.5002 25.9602C30.8502 25.2502 30.4202 24.4102 30.2202 23.4402C30.0102 22.4702 30.0702 21.5302 30.3802 20.6102C30.4202 20.4902 30.4802 20.3202 30.5802 20.1102C30.3102 19.9502 30.1602 19.8502 30.1002 19.8302C29.6802 19.6002 29.2702 19.2702 28.8902 18.8502C28.4102 18.3402 28.0503 17.7502 27.8103 17.1002C27.5703 16.4402 27.4602 15.7602 27.5002 15.0502C27.6002 13.5502 28.1902 12.3102 29.2502 11.3302C29.7402 10.8902 30.3002 10.5302 30.9502 10.2602L30.8502 9.86016C30.6102 8.95016 30.6202 8.03017 30.8702 7.09017C31.1202 6.16017 31.6302 5.35017 32.3702 4.66017C33.0802 4.01017 33.8803 3.58016 34.7703 3.39016C35.6603 3.19016 36.5802 3.23016 37.5102 3.50016C37.6602 3.54016 37.8803 3.61016 38.1603 3.71016C38.5103 3.00016 38.9602 2.40017 39.4802 1.90017C40.5602 0.900165 41.8403 0.430167 43.3003 0.480167C44.0203 0.510167 44.6903 0.670165 45.3103 0.970165C45.9503 1.27017 46.4902 1.67017 46.9802 2.19017C47.3602 2.61017 47.6502 3.04017 47.8502 3.48017C47.8802 3.51017 47.9602 3.68017 48.0802 3.98017C48.3002 3.89017 48.4702 3.84016 48.6002 3.82016C49.5502 3.58016 50.4902 3.60016 51.4402 3.89016C52.3802 4.18016 53.1902 4.68017 53.8402 5.38017C54.5002 6.09017 54.9202 6.93016 55.1202 7.89016C55.3102 8.85016 55.2602 9.79016 54.9402 10.7102L54.7602 11.2302C54.9702 11.3302 55.1302 11.4202 55.2402 11.5002C55.6602 11.7302 56.0603 12.0502 56.4303 12.4602C56.9103 12.9702 57.2702 13.5702 57.5102 14.2402C57.7502 14.9102 57.8602 15.5902 57.8202 16.2602H57.8302L57.8202 16.2802Z" fill="#4E7BBE"/>
<path d="M165.771 2.59078H159.291C158.441 2.58078 157.641 2.67078 156.891 2.85078C156.141 3.01078 155.361 3.26078 154.531 3.61078C153.731 3.93078 152.611 4.43078 151.171 5.12078C150.661 5.33078 150.121 5.56078 149.531 5.80078V0.800781L165.781 0.850784" fill="#F3F7FF"/>
<path d="M156.762 31.091V30.851C157.482 30.481 158.032 30.111 158.402 29.731C158.772 29.331 159.032 28.801 159.162 28.131C159.302 27.461 159.362 26.491 159.372 25.211L159.412 1.29102H165.772L165.732 25.221C165.732 26.501 165.782 27.471 165.882 28.141C166.012 28.811 166.272 29.341 166.642 29.741C167.012 30.111 167.572 30.491 168.322 30.861V31.101H163.962L161.122 31.091H156.762Z" fill="#F3F7FF"/>
<path d="M159.52 0.840782L175.76 0.800781V5.80078C175.18 5.56078 174.63 5.34078 174.13 5.12078C172.69 4.43078 171.57 3.92078 170.77 3.61078C169.94 3.26078 169.16 3.01078 168.41 2.85078C167.66 2.67078 166.86 2.57078 166.01 2.57078H159.53" fill="#F3F7FF"/>
<path d="M188.68 0.880081L204.92 0.830078V5.83008C204.34 5.59008 203.79 5.37008 203.29 5.15008C201.85 4.46008 200.73 3.95008 199.93 3.64008C199.1 3.29008 198.32 3.04008 197.57 2.88008C196.82 2.70008 196.02 2.60008 195.17 2.60008H188.69" fill="#F3F7FF"/>
<path d="M193.333 31.1298H190.493L186.133 31.1398V30.8998C186.883 30.5298 187.433 30.1498 187.813 29.7798C188.183 29.3798 188.443 28.8498 188.573 28.1798C188.673 27.5098 188.733 26.5399 188.723 25.2598L188.683 1.33984H195.043L195.083 25.2498C195.083 26.5298 195.153 27.4998 195.293 28.1698C195.423 28.8398 195.683 29.3698 196.053 29.7698C196.423 30.1398 196.973 30.5098 197.693 30.8898V31.1298H193.333Z" fill="#F3F7FF"/>
<path d="M194.932 2.62008H188.451C187.601 2.61008 186.802 2.70008 186.052 2.88008C185.302 3.04008 184.521 3.29008 183.691 3.64008C182.891 3.96008 181.771 4.46008 180.331 5.15008C179.821 5.36008 179.281 5.59008 178.691 5.83008V0.830078L194.941 0.870079" fill="#F3F7FF"/>
<path d="M6.51001 14.9305H11.03C13.48 14.9405 15.42 14.4305 16.83 13.3905C18.28 12.3505 19 10.7005 19 8.4305C19.01 6.3205 18.37 4.7805 17.09 3.7905C15.84 2.8005 14.09 2.30051 11.85 2.30051H7.13L7.14001 0.530502H12.58C16.76 0.550502 19.98 1.17051 22.21 2.40051C24.45 3.60051 25.5701 5.62051 25.5601 8.45051C25.5601 11.3605 24.29 13.4605 21.75 14.7605C19.24 16.0405 15.85 16.6705 11.59 16.6605H6.51001V14.9305ZM0 30.8005V30.5605C0.75 30.1905 1.30001 29.8205 1.64001 29.4405C2.02001 29.0405 2.27003 28.5105 2.41003 27.8405C2.54003 27.1705 2.60999 26.2005 2.60999 24.9205L2.65002 6.40051C2.65002 5.07051 2.57995 4.08051 2.44995 3.44051C2.31995 2.77051 2.06995 2.25051 1.69995 1.88051C1.34995 1.48051 0.800059 1.10051 0.0600586 0.760506V0.520508H4.42004L9.02002 0.540504L8.96997 24.9405C8.96997 26.2205 9.03004 27.1905 9.17004 27.8605C9.33004 28.5305 9.6 29.0605 10 29.4605C10.4 29.8405 11.02 30.2105 11.84 30.5805V30.8205H7.04004L4.35999 30.8105H0V30.8005Z" fill="#F3F7FF"/>
<path d="M76.5417 31.5009C73.4017 31.5009 70.6518 30.8409 68.3118 29.5209C65.9618 28.1809 64.1517 26.3409 62.8817 23.9909C61.6317 21.6109 61.0117 18.9309 61.0117 15.9509C61.0217 12.7809 61.7217 10.0009 63.1117 7.6309C64.5217 5.2309 66.4517 3.4009 68.8817 2.1209C71.3317 0.820895 74.0917 0.170898 77.1617 0.170898C80.8917 0.170898 84.0718 1.13089 86.6818 3.03089C89.2918 4.93089 91.0317 7.6409 91.9017 11.1609H85.8217C85.3717 8.4009 84.4217 6.21089 82.9517 4.58089C81.4917 2.95089 79.6017 2.1309 77.2817 2.1309C75.3017 2.1309 73.6117 2.7009 72.1917 3.8409C70.7817 4.9609 69.7017 6.49089 68.9517 8.43089C68.2017 10.3509 67.8218 12.4709 67.8118 14.7909C67.8118 17.3809 68.2217 19.6409 69.0417 21.5909C69.8617 23.5409 71.0718 25.0509 72.6718 26.1209C74.2718 27.1909 76.2217 27.7309 78.5117 27.7309C81.6017 27.7309 84.1217 26.8209 86.0717 24.9809C88.0517 23.1409 89.3217 20.6309 89.8917 17.4309H92.1718C91.7418 20.2909 90.8417 22.7609 89.4817 24.8709C88.1417 26.9709 86.3717 28.6109 84.1917 29.7809C82.0016 30.9209 79.4517 31.4909 76.5417 31.4909V31.5009Z" fill="#F3F7FF"/>
</svg>
