<svg width="22" height="20" viewBox="0 0 22 20" fill="none" xmlns="http://www.w3.org/2000/svg">
<path d="M10.9948 1.05377L13.0346 4.82844L13.2306 5.19104L13.6239 5.06789L17.9481 3.71394L16.4947 7.58617L16.3292 8.02701L16.7593 8.21862L20.7712 10.0057L16.7593 11.7928L16.3292 11.9844L16.4947 12.4253L17.9481 16.2975L13.6239 14.9436L13.231 14.8205L13.0349 15.1826L10.9948 18.9483L8.96557 15.1835L8.7698 14.8203L8.37603 14.9436L4.05186 16.2975L5.50532 12.4253L5.6708 11.9844L5.24067 11.7928L1.22878 10.0057L5.24067 8.21862L5.6708 8.02701L5.50532 7.58617L4.05186 3.71395L8.37603 5.06789L8.77021 5.19131L8.96582 4.82751L10.9948 1.05377Z" fill="#F2BE58" stroke="black"/>
</svg>
