<svg width="39" height="38" viewBox="0 0 39 38" fill="none" xmlns="http://www.w3.org/2000/svg">
<path d="M38.4142 20.5118C38.2794 22.3469 37.5275 23.8381 36.1739 25.0017C35.4932 25.5833 34.747 26.0133 33.9115 26.2986C33.9618 26.434 34.0089 26.6637 34.061 26.9721C34.3085 28.2152 34.2519 29.3847 33.8758 30.4724C33.5076 31.5603 32.8457 32.5042 31.9055 33.3127C30.8357 34.2267 29.6303 34.7507 28.2736 34.8763C26.9169 35.0019 25.7136 34.7869 24.6638 34.2313C24.235 35.0262 23.6926 35.6991 23.036 36.2659C21.6824 37.4295 20.0843 37.9397 18.2574 37.7973C17.4182 37.7366 16.6087 37.5039 15.8206 37.1068C15.0326 36.7098 14.3591 36.183 13.8002 35.5267C13.362 35.016 13.027 34.4775 12.8025 33.9272C12.7208 33.7907 12.6261 33.5751 12.5334 33.3045L11.8599 33.454C10.6872 33.7118 9.52588 33.6476 8.37576 33.2615C7.22565 32.8754 6.26545 32.2286 5.48708 31.3287C4.70897 30.4209 4.21877 29.3738 4.00159 28.1633C3.78414 26.9606 3.89568 25.7929 4.3278 24.6758C4.38012 24.5283 4.47391 24.3193 4.60075 24.0642C4.27022 23.8483 4.0856 23.7317 4.0236 23.706C3.50762 23.397 3.01904 22.979 2.56598 22.4443C1.99925 21.7876 1.58472 21.0498 1.30672 20.2302C1.03656 19.4109 0.932427 18.566 0.99455 17.6876C1.19276 15.839 1.96866 14.3329 3.32227 13.1693C3.93827 12.6404 4.65251 12.2251 5.465 11.9232L5.35663 11.4241C5.09744 10.2907 5.14506 9.15231 5.49947 8.0089C5.85389 6.86549 6.50908 5.88983 7.44959 5.07352C8.35733 4.29538 9.35728 3.80351 10.4727 3.60659C11.5806 3.40154 12.7019 3.48787 13.8522 3.86613C14.0391 3.91983 14.303 4.01553 14.6363 4.15297C15.1068 3.2888 15.6747 2.56169 16.3554 1.98005C17.7331 0.801609 19.3242 0.26748 21.1441 0.38607C22.0222 0.456047 22.8477 0.681439 23.6122 1.07767C24.3768 1.47391 25.0424 2.00036 25.6091 2.65701C26.07 3.19203 26.4047 3.73837 26.6371 4.289C26.675 4.32964 26.7621 4.5371 26.906 4.91953C27.1844 4.82704 27.3989 4.76376 27.5492 4.73756C28.7218 4.47973 29.8828 4.55173 31.0484 4.94625C32.2061 5.34049 33.1741 5.98757 33.9522 6.89534C34.7303 7.80312 35.2205 8.85022 35.4226 10.0445C35.6246 11.2388 35.5133 12.3986 35.0891 13.516L34.8386 14.1598C35.0933 14.2945 35.2937 14.4116 35.4157 14.5181C35.9239 14.8267 36.4049 15.2366 36.843 15.7473C37.4098 16.4039 37.824 17.1496 38.0936 17.9846C38.3632 18.8196 38.4755 19.6569 38.4069 20.4958L38.4142 20.5118Z" fill="#4E7BBE"/>
</svg>
