<?xml version="1.0" encoding="UTF-8"?><svg id="Layer_2" xmlns="http://www.w3.org/2000/svg" viewBox="0 0 38 38"><defs><style>.cls-1{fill:#ef764f;}</style></defs><g id="Arancione"><polygon id="Arancione-2" class="cls-1" points="38 19.61 22.06 19.61 36.79 25.71 36.32 26.83 21.59 20.73 32.86 32.01 32 32.87 20.73 21.59 26.83 36.32 25.71 36.79 19.61 22.06 19.61 38 18.39 38 18.39 22.06 12.29 36.79 11.17 36.32 17.27 21.59 6 32.86 5.14 32 16.41 20.73 1.68 26.83 1.21 25.71 15.94 19.61 0 19.61 0 18.39 15.94 18.39 1.21 12.29 1.68 11.17 16.41 17.27 5.14 5.99 6 5.13 17.27 16.41 11.17 1.68 12.29 1.21 18.39 15.94 18.39 0 19.61 0 19.61 15.94 25.71 1.21 26.83 1.68 20.73 16.41 32 5.13 32.86 5.99 21.59 17.27 36.32 11.17 36.79 12.29 22.06 18.39 38 18.39 38 19.61"/></g></svg>