<svg width="20" height="20" viewBox="0 0 20 20" fill="none" xmlns="http://www.w3.org/2000/svg">
<path d="M9.99541 1.13628L11.8008 4.8112L11.9953 5.20713L12.4124 5.06348L16.2661 3.73618L14.9475 7.60041L14.8053 8.01713L15.2007 8.21088L18.8637 10.0057L15.2007 11.8006L14.8053 11.9943L14.9475 12.411L16.2661 16.2753L12.4124 14.948L11.9957 14.8045L11.801 15.1998L9.99541 18.866L8.19939 15.2007L8.00508 14.8042L7.58757 14.948L3.7339 16.2753L5.0525 12.411L5.19469 11.9943L4.79929 11.8006L1.13633 10.0057L4.79929 8.21088L5.19469 8.01713L5.0525 7.60041L3.7339 3.73619L7.58757 5.06348L8.0055 5.20742L8.19961 4.8103L9.99541 1.13628Z" stroke="black"/>
</svg>
