<svg width="20" height="22" viewBox="0 0 20 22" fill="none" xmlns="http://www.w3.org/2000/svg">
<path fill-rule="evenodd" clip-rule="evenodd" d="M18.3778 7.5C16.4178 -1.16 3.58776 -1.17 1.61776 7.49C0.467756 12.57 3.62776 16.88 6.38776 19.54C8.40776 21.48 11.5878 21.48 13.5978 19.54C16.3678 16.88 19.5278 12.58 18.3778 7.5ZM13.1189 9.30994C13.1189 11.0331 11.722 12.4299 9.99891 12.4299C8.27578 12.4299 6.87891 11.0331 6.87891 9.30994C6.87891 7.58681 8.27578 6.18994 9.99891 6.18994C11.722 6.18994 13.1189 7.58681 13.1189 9.30994Z" fill="#F2BE58"/>
<path d="M1.61776 7.49L0.886439 7.32364L0.886265 7.32441L1.61776 7.49ZM18.3778 7.5L17.6463 7.66556L17.6463 7.6656L18.3778 7.5ZM6.38776 19.54L5.8673 20.08L5.86825 20.0809L6.38776 19.54ZM13.5978 19.54L13.0783 18.999L13.0769 19.0004L13.5978 19.54ZM2.34907 7.65636C3.24214 3.73047 6.58413 1.74769 10.001 1.75C13.4179 1.75231 16.7577 3.73971 17.6463 7.66556L19.1093 7.33444C18.0378 2.6003 13.9826 0.252693 10.002 0.250002C6.02138 0.247312 1.96337 2.58953 0.886439 7.32364L2.34907 7.65636ZM6.90821 19C4.18597 16.3764 1.29195 12.3261 2.34925 7.6556L0.886265 7.32441C-0.356438 12.8139 3.06955 17.3836 5.8673 20.08L6.90821 19ZM13.0769 19.0004C11.3582 20.6592 8.63774 20.661 6.90727 18.9991L5.86825 20.0809C8.17777 22.299 11.8173 22.3008 14.1186 20.0796L13.0769 19.0004ZM17.6463 7.6656C18.7034 12.3354 15.8102 16.3756 13.0783 18.999L14.1172 20.081C16.9253 17.3844 20.3521 12.8246 19.1092 7.33441L17.6463 7.6656ZM9.99891 13.1799C12.1362 13.1799 13.8689 11.4473 13.8689 9.30994H12.3689C12.3689 10.6189 11.3078 11.6799 9.99891 11.6799V13.1799ZM6.12891 9.30994C6.12891 11.4473 7.86156 13.1799 9.99891 13.1799V11.6799C8.68999 11.6799 7.62891 10.6189 7.62891 9.30994H6.12891ZM9.99891 5.43994C7.86156 5.43994 6.12891 7.1726 6.12891 9.30994H7.62891C7.62891 8.00103 8.68999 6.93994 9.99891 6.93994V5.43994ZM13.8689 9.30994C13.8689 7.1726 12.1362 5.43994 9.99891 5.43994V6.93994C11.3078 6.93994 12.3689 8.00103 12.3689 9.30994H13.8689Z" fill="#292D32"/>
</svg>
