<?xml version="1.0" encoding="utf-8"?>
<!-- Generator: Adobe Illustrator 27.6.1, SVG Export Plug-In . SVG Version: 6.00 Build 0)  -->
<svg version="1.1" id="Layer_1" xmlns="http://www.w3.org/2000/svg" xmlns:xlink="http://www.w3.org/1999/xlink" x="0px" y="0px"
	 viewBox="0 0 22.2 20.9" style="enable-background:new 0 0 22.2 20.9;" xml:space="preserve">
<style type="text/css">
	.st0{display:none;}
</style>
<g>
	<path d="M12.1,1c2.3,0,4.2,0.6,5.8,1.8c1.6,1.2,2.6,3,3,5.3h-4.2c-0.3-1.2-0.8-2-1.7-2.7c-0.8-0.7-1.8-1-3-1
		c-0.9,0-1.8,0.2-2.5,0.7c-0.7,0.5-1.3,1.2-1.8,2C7.7,7.7,7.6,8.1,7.5,8.6h6.4v1.3H7.3c0,0.2,0,0.3,0,0.5c0,0.3,0,0.6,0,0.8h6.6v1.3
		H7.6c0.1,0.4,0.2,0.7,0.3,1c0.4,0.9,1,1.6,1.7,2.1c0.7,0.5,1.6,0.7,2.5,0.7c1.2,0,2.3-0.4,3.1-1.2c0.9-0.8,1.4-1.9,1.6-3.3h4.2
		c-0.2,1.7-0.7,3.1-1.5,4.3c-0.8,1.2-1.9,2.1-3.2,2.7c-1.3,0.6-2.7,0.9-4.3,0.9c-1.8,0-3.3-0.4-4.7-1.2C6,17.9,5,16.8,4.2,15.4
		c-0.4-0.9-0.7-1.8-0.9-2.8H1v-1.3h2.1c0-0.3,0-0.5,0-0.8c0-0.2,0-0.3,0-0.5H1V8.6h2.2c0.2-1.1,0.5-2.2,1-3.1C5,4,6.1,2.9,7.4,2.2
		C8.8,1.4,10.4,1,12.1,1 M12.1,0c-1.9,0-3.7,0.4-5.2,1.3C5.4,2.2,4.2,3.4,3.4,5C3,5.7,2.7,6.6,2.4,7.6H1H0v1v1.3v1v0.3v1.3v1h1h1.5
		c0.2,0.8,0.5,1.6,0.8,2.3c0.8,1.6,2,2.8,3.5,3.7c1.5,0.9,3.2,1.3,5.2,1.3c1.7,0,3.3-0.3,4.7-1c1.5-0.7,2.7-1.7,3.6-3
		c0.9-1.3,1.5-2.9,1.7-4.8l0.1-1.1h-1.1h-4.2H16l-0.1,0.9c-0.1,1.1-0.6,2-1.3,2.7c-0.7,0.6-1.5,1-2.5,1c-0.8,0-1.4-0.2-2-0.6
		c-0.5-0.3-0.9-0.8-1.2-1.3h4.9h1v-1v-1.3v-0.3v-1V8.6v-1h-1h-5c0.3-0.6,0.8-1.1,1.3-1.5c0.6-0.4,1.2-0.6,1.9-0.6
		c0.9,0,1.7,0.2,2.3,0.8c0.7,0.5,1.1,1.2,1.3,2.2L16,9.2h0.8H21h1.2L21.9,8c-0.5-2.6-1.6-4.6-3.4-6C16.8,0.7,14.6,0,12.1,0L12.1,0z"
		/>
</g>
<path class="st0" d="M1.5,8.5v-1h-1v1H1.5z M14.4,8.5h1v-1h-1V8.5z M14.4,9.8v1h1v-1H14.4z M1.5,9.8h-1v1h1V9.8z M1.5,11.1v-1h-1v1
	H1.5z M14.4,11.1h1v-1h-1V11.1z M14.4,12.5v1h1v-1H14.4z M1.5,12.5h-1v1h1V12.5z M7.8,18.6l-0.5,0.9l0,0L7.8,18.6z M4.7,15.3
	l-0.9,0.5l0,0L4.7,15.3z M4.7,5.4l0.9,0.5l0,0L4.7,5.4z M7.9,2.1L8.4,3l0,0L7.9,2.1z M18.4,2.8l-0.6,0.8l0,0L18.4,2.8z M21.4,8.1v1
	h1.2l-0.2-1.2L21.4,8.1z M17.3,8.1l-1,0.2l0.2,0.8h0.8V8.1z M15.6,5.4L15,6.2l0,0L15.6,5.4z M10.2,5.2L10.7,6l0,0L10.2,5.2z
	 M8.4,7.2L7.5,6.8l0,0l0,0L8.4,7.2z M8.4,13.5l-0.9,0.4l0,0l0,0L8.4,13.5z M10.1,15.6l-0.6,0.8l0,0l0,0L10.1,15.6z M15.8,15.1
	l-0.7-0.7l0,0L15.8,15.1z M17.3,11.9v-1h-0.9l-0.1,0.9L17.3,11.9z M21.5,11.9l1,0.1l0.1-1.1h-1.1V11.9z M20,16.2l0.8,0.6l0,0
	L20,16.2z M16.8,18.9l0.4,0.9l0,0L16.8,18.9z M1.5,9.5h12.9v-2H1.5V9.5z M13.4,8.5v1.3h2V8.5H13.4z M14.4,8.8H1.5v2h12.9V8.8z
	 M2.5,9.8V8.5h-2v1.3H2.5z M1.5,12.1h12.9v-2H1.5V12.1z M13.4,11.1v1.3h2v-1.3H13.4z M14.4,11.5H1.5v2h12.9V11.5z M2.5,12.5v-1.3h-2
	v1.3H2.5z M12.5,18.8c-1.6,0-3-0.4-4.2-1l-1,1.7c1.5,0.9,3.2,1.3,5.2,1.3V18.8z M8.4,17.8c-1.2-0.7-2.1-1.7-2.8-2.9l-1.8,0.9
	c0.8,1.6,2,2.8,3.5,3.7L8.4,17.8z M5.6,14.9c-0.7-1.3-1-2.8-1-4.5h-2c0,2,0.4,3.8,1.2,5.4L5.6,14.9z M4.6,10.3c0-1.8,0.3-3.3,1-4.5
	L3.8,4.9C3,6.5,2.6,8.3,2.6,10.3H4.6z M5.6,5.8C6.3,4.6,7.2,3.6,8.4,3l-1-1.8C5.9,2.1,4.7,3.3,3.8,4.9L5.6,5.8z M8.4,3
	c1.2-0.7,2.6-1,4.2-1V0c-1.9,0-3.7,0.4-5.2,1.3L8.4,3z M12.6,2c2.1,0,3.8,0.6,5.2,1.6L19,2c-1.8-1.4-4-2-6.4-2V2z M17.8,3.6
	c1.4,1,2.3,2.5,2.6,4.7l2-0.3C22,5.4,20.8,3.4,19,2L17.8,3.6z M21.4,7.1h-4.2v2h4.2V7.1z M18.2,7.9c-0.3-1.3-1-2.4-2-3.2L15,6.2
	c0.6,0.5,1.1,1.2,1.3,2.1L18.2,7.9z M16.2,4.6c-1-0.8-2.2-1.2-3.6-1.2v2c1,0,1.7,0.3,2.3,0.8L16.2,4.6z M12.6,3.4
	c-1.1,0-2.1,0.3-3,0.9L10.7,6c0.6-0.4,1.2-0.6,1.9-0.6V3.4z M9.6,4.3C8.7,4.9,8,5.7,7.5,6.8l1.8,0.9c0.4-0.7,0.8-1.3,1.4-1.6
	L9.6,4.3z M7.5,6.8C7,7.8,6.8,9,6.8,10.3h2c0-1.1,0.2-2,0.5-2.7L7.5,6.8z M6.8,10.3c0,1.3,0.2,2.5,0.7,3.6l1.8-0.8
	c-0.3-0.8-0.5-1.7-0.5-2.8H6.8z M7.5,13.9c0.5,1.1,1.2,1.9,2.1,2.5l1.1-1.6c-0.6-0.4-1-1-1.4-1.7L7.5,13.9z M9.5,16.5
	c0.9,0.6,2,0.9,3.1,0.9v-2c-0.8,0-1.4-0.2-2-0.6L9.5,16.5z M12.6,17.4c1.5,0,2.8-0.5,3.8-1.5l-1.4-1.4c-0.6,0.6-1.4,0.9-2.5,0.9
	V17.4z M16.5,15.9c1.1-1,1.7-2.3,1.9-3.9l-2-0.3c-0.2,1.2-0.6,2-1.3,2.7L16.5,15.9z M17.3,12.9h4.2v-2h-4.2V12.9z M20.5,11.8
	c-0.2,1.5-0.6,2.8-1.4,3.9l1.6,1.1c0.9-1.4,1.5-3,1.7-4.8L20.5,11.8z M19.2,15.6c-0.7,1-1.7,1.8-2.8,2.4l0.9,1.8
	c1.5-0.7,2.6-1.7,3.6-3L19.2,15.6z M16.4,18c-1.2,0.5-2.4,0.8-3.9,0.8v2c1.7,0,3.3-0.3,4.7-1L16.4,18z"/>
</svg>
