<svg width="329" height="40" viewBox="0 0 329 40" fill="none" xmlns="http://www.w3.org/2000/svg">
<path d="M123.075 21.8333L136.919 7.02255C137.789 6.0561 138.502 5.18631 139.045 4.41315C139.589 3.63999 140.108 2.84268 140.592 1.99704L140.785 1.61046H148.71V2.05744C147.127 2.44402 145.835 2.90308 144.844 3.4467C143.745 3.99033 142.718 4.76349 141.751 5.76618L123.353 24.4306L123.063 21.8213L123.075 21.8333ZM114.196 38.1542V37.8643C115.102 37.4173 115.766 36.9582 116.177 36.5112C116.624 36.028 116.938 35.3877 117.095 34.5783C117.264 33.7689 117.337 32.5971 117.349 31.0508L117.385 8.67759C117.385 7.07088 117.312 5.8749 117.143 5.10174C116.986 4.29234 116.684 3.66416 116.225 3.21718C115.802 2.73395 115.15 2.27489 114.244 1.86415V1.57422H119.511H122.942L128.209 1.58629V1.87623C127.303 2.29905 126.627 2.74603 126.18 3.22925C125.733 3.67623 125.419 4.30443 125.261 5.11383C125.129 5.88698 125.068 7.08296 125.056 8.68967L125.02 31.0629C125.02 32.6092 125.08 33.781 125.201 34.5904C125.358 35.3998 125.672 36.0401 126.119 36.5233C126.566 36.9703 127.243 37.4293 128.149 37.8763V38.1663H122.882L119.451 38.1542H114.184H114.196ZM127.037 19.2843L131.737 14.9957L149.725 37.8401V38.2267H140.495L127.049 19.2964L127.037 19.2843Z" fill="#1E1E1E"/>
<path d="M158.499 36.0167L165.892 35.9804C167.475 35.9804 168.852 35.8596 170.048 35.6059C171.268 35.3522 172.525 34.9536 173.817 34.41C175.146 33.8663 176.813 33.0811 178.843 32.0543V38.2878L158.487 38.2516V36.0288L158.499 36.0167ZM151.106 38.2274V37.9375C152.012 37.4905 152.676 37.0435 153.087 36.5845C153.534 36.1013 153.848 35.461 154.005 34.6516C154.174 33.8422 154.247 32.6704 154.259 31.1241L154.307 8.75083C154.307 7.14412 154.235 5.94814 154.066 5.17499C153.909 4.36559 153.607 3.7374 153.147 3.29042C152.725 2.8072 152.072 2.34813 151.166 1.93739V1.64746H156.433H161.99L161.918 38.2395H156.361L151.094 38.2153L151.106 38.2274ZM175.062 20.6381C173.189 20.5052 171.28 20.4086 169.311 20.3361C167.378 20.2636 165.723 20.2274 164.334 20.2274H159.309V18.0891H164.334C167.076 18.1012 170.652 17.9804 175.062 17.7267V20.626V20.6381ZM177.695 7.63942C177.152 7.40989 176.487 7.13204 175.714 6.81794C173.974 6.04479 172.573 5.47701 171.51 5.11459C170.447 4.72801 169.432 4.43807 168.466 4.24479C167.535 4.01525 166.521 3.90653 165.421 3.90653H158.366V1.67162L177.695 1.70787V7.65151V7.63942Z" fill="#1E1E1E"/>
<path d="M210.93 31.7637H217.26V38.3476H210.93L210.942 31.7637H210.93Z" fill="#F2BE58"/>
<path d="M250.246 38.4071V38.1172C251.152 37.6702 251.817 37.2232 252.227 36.7642C252.674 36.2809 252.988 35.6407 253.145 34.8313C253.315 34.0219 253.387 32.85 253.399 31.3037L253.435 8.93052C253.435 7.3238 253.363 6.12783 253.194 5.35467C253.037 4.54527 252.735 3.91709 252.276 3.47011C251.853 2.98688 251.2 2.5399 250.294 2.11708V1.82715H255.562H258.992L264.308 1.83923V2.12916C263.378 2.5399 262.677 2.99896 262.23 3.48218C261.807 3.92916 261.517 4.55736 261.36 5.36676C261.203 6.13991 261.119 7.33589 261.119 8.9426L261.082 31.3158C261.082 32.8621 261.155 34.034 261.312 34.8433C261.469 35.6527 261.759 36.293 262.182 36.7762C262.629 37.2232 263.305 37.6823 264.211 38.1293V38.4192H258.944L255.513 38.4071H250.246Z" fill="#1E1E1E"/>
<path d="M275.857 19.2724H281.317C284.277 19.2844 286.621 18.6683 288.324 17.412C290.064 16.1556 290.934 14.1623 290.946 11.42C290.946 8.87099 290.185 7.01058 288.638 5.8146C287.128 4.61862 285.014 4.0146 282.308 4.0146H276.606V1.87634H283.178C288.24 1.9005 292.117 2.64949 294.823 4.1354C297.53 5.58507 298.87 8.02535 298.87 11.4442C298.87 14.9596 297.324 17.4965 294.268 19.067C291.236 20.6133 287.14 21.3744 281.994 21.3623H275.857V19.2724ZM267.993 38.4442V38.1543C268.899 37.7073 269.551 37.2603 269.974 36.8013C270.421 36.318 270.735 35.6778 270.892 34.8684C271.049 34.059 271.134 32.8872 271.134 31.3408L271.17 8.96763C271.17 7.36091 271.097 6.16494 270.94 5.39178C270.783 4.58238 270.481 3.9542 270.022 3.50722C269.599 3.02399 268.947 2.56493 268.041 2.15419V1.86426H273.308L278.865 1.88841L278.817 31.365C278.817 32.9113 278.889 34.0831 279.046 34.8925C279.24 35.7019 279.578 36.3422 280.061 36.8254C280.544 37.2724 281.281 37.7315 282.284 38.1785V38.4684H276.485H273.248L267.98 38.4563L267.993 38.4442Z" fill="#1E1E1E"/>
<path d="M316.037 39.3496C313.27 39.3496 310.77 38.8784 308.547 37.9362C306.36 36.9939 304.572 35.6046 303.195 33.7684C301.818 31.8959 300.948 29.6247 300.598 26.9549H307.363C307.713 30.0234 308.595 32.4999 310.008 34.3724C311.458 36.2449 313.5 37.1992 316.133 37.2355C318.006 37.2355 319.504 36.7764 320.627 35.8462C321.751 34.8798 322.319 33.563 322.331 31.8838C322.367 30.6878 322.065 29.6247 321.412 28.6945C320.772 27.7643 319.866 26.9066 318.706 26.1334C317.583 25.324 315.928 24.3093 313.741 23.0771L313.065 22.6905L312.582 22.4489C310.262 21.1562 308.414 20.0086 307.025 19.0059C305.647 18.0032 304.512 16.8435 303.654 15.5146C302.82 14.1616 302.398 12.6153 302.41 10.8757C302.41 8.88239 302.953 7.16695 304.016 5.75352C305.08 4.30386 306.529 3.21661 308.365 2.47969C310.238 1.70653 312.34 1.33203 314.696 1.33203C317.112 1.33203 319.323 1.74277 321.316 2.55217C323.309 3.32533 324.964 4.50922 326.281 6.09178C327.634 7.67433 328.528 9.6193 328.975 11.9388H322.306C322.149 10.32 321.763 8.88239 321.159 7.62601C320.543 6.33339 319.697 5.31862 318.598 4.58171C317.498 3.84479 316.218 3.44613 314.732 3.40989C312.956 3.40989 311.555 3.83271 310.528 4.70251C309.525 5.57231 309.03 6.74413 309.018 8.23004C309.018 9.42601 309.356 10.4891 310.033 11.4193C310.709 12.3254 311.603 13.1831 312.739 13.9804C313.898 14.7535 315.517 15.7079 317.619 16.8435L317.957 17.0368L318.296 17.2301C320.772 18.6193 322.717 19.8274 324.131 20.8663C325.58 21.869 326.752 23.065 327.658 24.4542C328.564 25.8435 328.999 27.4623 328.999 29.3348C328.999 31.4006 328.431 33.1885 327.296 34.6986C326.196 36.2086 324.662 37.3684 322.705 38.1657C320.772 38.963 318.549 39.3617 316.037 39.3617V39.3496Z" fill="#1E1E1E"/>
<path d="M69.7298 24.3704L62.4814 24.31L67.5674 29.4443L61.0559 35.8832L55.9942 30.7731L55.9579 37.9248L46.8009 37.8765L46.8371 30.6282L41.6908 35.702L35.2518 29.1906L40.3498 24.1651L33.2344 24.1167L33.3069 14.9597L40.4465 15.0201L35.421 9.93415L41.9445 3.51937L47.0062 8.65362L47.0787 1.40527L56.2358 1.48984L56.1633 8.64153L61.2855 3.59185L67.7123 10.1033L62.5298 15.1892L69.7902 15.2496L69.7177 24.3946L69.7298 24.3704Z" fill="#F2BE58"/>
<path d="M200.263 3.85774H192.435C191.408 3.84566 190.442 3.95438 189.536 4.17183C188.63 4.36512 187.688 4.66713 186.685 5.08995C185.718 5.47653 184.365 6.08056 182.626 6.91412C182.01 7.16781 181.357 7.44566 180.645 7.7356V1.69531L200.275 1.75572" fill="#1E1E1E"/>
<path d="M189.379 38.2872V37.9973C190.249 37.5503 190.913 37.1033 191.36 36.6442C191.807 36.161 192.121 35.5208 192.278 34.7114C192.447 33.902 192.52 32.7302 192.532 31.1838L192.58 2.28711H200.263L200.215 31.1959C200.215 32.7422 200.276 33.914 200.396 34.7234C200.553 35.5328 200.868 36.1731 201.315 36.6563C201.761 37.1033 202.438 37.5624 203.344 38.0094V38.2993H198.077L194.646 38.2872H189.379Z" fill="#1E1E1E"/>
<path d="M192.711 1.74364L212.33 1.69531V7.7356C211.629 7.44566 210.965 7.17989 210.361 6.91412C208.621 6.08056 207.268 5.46445 206.302 5.08995C205.299 4.66713 204.357 4.36512 203.451 4.17183C202.545 3.95438 201.578 3.83357 200.551 3.83357H192.723" fill="#1E1E1E"/>
<path d="M227.934 1.79088L247.552 1.73047V7.77075C246.852 7.48082 246.187 7.21505 245.583 6.94928C243.844 6.11572 242.491 5.4996 241.524 5.12511C240.522 4.70229 239.579 4.40028 238.673 4.20699C237.767 3.98954 236.801 3.86873 235.774 3.86873H227.946" fill="#1E1E1E"/>
<path d="M233.553 38.3347H230.123L224.855 38.3468V38.0569C225.762 37.6099 226.426 37.1508 226.885 36.7038C227.332 36.2206 227.646 35.5803 227.803 34.7709C227.924 33.9615 227.996 32.7897 227.984 31.2434L227.936 2.34668H235.619L235.668 31.2313C235.668 32.7776 235.752 33.9494 235.921 34.7588C236.078 35.5682 236.392 36.2085 236.839 36.6917C237.286 37.1387 237.951 37.5857 238.821 38.0448V38.3347H233.553Z" fill="#1E1E1E"/>
<path d="M235.486 3.89289H227.658C226.631 3.88081 225.665 3.98954 224.758 4.20699C223.852 4.40028 222.91 4.70229 221.907 5.12511C220.941 5.51168 219.588 6.11572 217.848 6.94928C217.232 7.20297 216.58 7.48082 215.867 7.77075V1.73047L235.498 1.77879" fill="#1E1E1E"/>
<path d="M7.86444 18.7646H13.3249C16.2846 18.7766 18.6282 18.1605 20.3316 16.9041C22.0833 15.6478 22.9531 13.6545 22.9531 10.9122C22.9652 8.36317 22.192 6.50276 20.6457 5.30679C19.1356 4.11081 17.0215 3.50679 14.3155 3.50679H8.61345L8.62553 1.36852H15.1974C20.247 1.39268 24.137 2.14168 26.831 3.62759C29.537 5.07726 30.89 7.51754 30.8779 10.9363C30.8779 14.4518 29.3437 16.9887 26.2752 18.5592C23.243 20.1055 19.1477 20.8666 14.0014 20.8545H7.86444V18.7646ZM0 37.9364V37.6465C0.906043 37.1995 1.57047 36.7525 1.98121 36.2935C2.44027 35.8102 2.74229 35.17 2.91142 34.3606C3.06847 33.5512 3.15303 32.3793 3.15303 30.833L3.20134 8.45982C3.20134 6.8531 3.11678 5.65713 2.95974 4.88397C2.80269 4.07457 2.50067 3.44638 2.05369 2.9994C1.63087 2.51618 0.966443 2.05712 0.0724805 1.64638V1.35645H5.33961L10.8967 1.3806L10.8363 30.8572C10.8363 32.4035 10.9088 33.5753 11.0779 34.3847C11.2712 35.1941 11.5973 35.8344 12.0806 36.3176C12.5638 36.7767 13.3128 37.2237 14.3034 37.6706V37.9606H8.50471L5.26713 37.9485H0V37.9364Z" fill="#1E1E1E"/>
<path d="M92.4682 38.783C88.6749 38.783 85.3527 37.9857 82.5259 36.391C79.6869 34.7722 77.5003 32.5494 75.9661 29.7105C74.456 26.8353 73.707 23.5977 73.707 19.9977C73.7191 16.1682 74.5648 12.8098 76.244 9.94667C77.9473 7.04734 80.2789 4.83659 83.2145 3.29028C86.1742 1.7198 89.5084 0.93457 93.2172 0.93457C97.7232 0.93457 101.565 2.0943 104.718 4.38961C107.871 6.68491 109.973 9.95875 111.024 14.2111H103.679C103.135 10.8769 101.988 8.23123 100.212 6.2621C98.448 4.29296 96.1648 3.30236 93.3621 3.30236C90.9702 3.30236 88.9286 3.99095 87.2131 5.36814C85.5098 6.72116 84.205 8.56948 83.299 10.9131C82.393 13.2326 81.9339 15.7937 81.9218 18.5964C81.9218 21.7252 82.4171 24.4554 83.4077 26.8111C84.3983 29.1669 85.8601 30.991 87.793 32.2836C89.7259 33.5763 92.0816 34.2286 94.848 34.2286C98.5809 34.2286 101.625 33.1293 103.981 30.9065C106.373 28.6836 107.907 25.6514 108.596 21.7856H111.35C110.831 25.2407 109.743 28.2246 108.1 30.7736C106.482 33.3105 104.343 35.2917 101.71 36.7051C99.0642 38.0823 95.9836 38.7709 92.4682 38.7709V38.783Z" fill="#1E1E1E"/>
</svg>
