<svg width="214" height="25" viewBox="0 0 214 25" fill="none" xmlns="http://www.w3.org/2000/svg">
<path d="M80.0526 13.5962L89.0651 3.96059C89.6309 3.33184 90.0945 2.76597 90.4481 2.26297C90.8095 1.75997 91.1395 1.24125 91.4539 0.691093L91.5796 0.439593H96.7341V0.730392C95.7126 0.981893 94.8719 1.28054 94.2197 1.63422C93.5047 1.98789 92.8367 2.49089 92.2081 3.13536L80.2411 15.2781L80.0526 13.5805V13.5962ZM74.2852 24.2142V24.0256C74.8745 23.7348 75.2988 23.4362 75.5738 23.1454C75.8724 22.831 76.0687 22.4144 76.1709 21.8879C76.2809 21.3613 76.336 20.5989 76.336 19.5929L76.3596 5.03733C76.3596 3.99203 76.3124 3.21396 76.2102 2.71096C76.1081 2.18438 75.9116 1.77569 75.613 1.48489C75.3459 1.17052 74.9137 0.871858 74.3244 0.604639V0.416016L83.4077 0.431732V0.620355C82.8263 0.895434 82.3862 1.18623 82.0876 1.50061C81.7969 1.79141 81.5926 2.20009 81.4905 2.72667C81.404 3.22967 81.3648 4.00776 81.3569 5.05306L81.3333 19.6086C81.3333 20.6146 81.3726 21.377 81.4512 21.9036C81.5612 22.4302 81.7577 22.8467 82.0484 23.1611C82.3391 23.4519 82.7791 23.7505 83.3684 24.0413V24.23L74.2852 24.2142ZM82.6377 11.9379L85.6864 9.14779L97.3862 24.0099V24.2614H91.3832L82.6377 11.9457V11.9379Z" fill="#F3F7FF"/>
<path d="M103.098 22.8238L107.907 22.8002C108.936 22.8002 109.832 22.7216 110.61 22.5566C111.403 22.3916 112.221 22.1322 113.061 21.7785C113.926 21.4249 115.01 20.914 116.338 20.2459V24.3014L103.098 24.2778V22.8317V22.8238ZM98.2891 24.2621V24.0735C98.8705 23.7827 99.3027 23.4919 99.5777 23.1932C99.8684 22.8788 100.073 22.4623 100.175 21.9357C100.285 21.4091 100.332 20.6468 100.34 19.6408L100.363 5.08518C100.363 4.03989 100.316 3.26181 100.214 2.75881C100.104 2.23223 99.9078 1.82354 99.617 1.53274C99.342 1.21837 98.9177 0.91971 98.3284 0.652491V0.463867L105.369 0.479583L105.329 24.2778L98.2891 24.2621ZM113.863 12.8188C112.653 12.7324 111.403 12.6695 110.123 12.6223C108.865 12.5752 107.789 12.5595 106.885 12.5516H103.616V11.1605H106.885C108.661 11.1683 110.987 11.0898 113.863 10.9247V12.811V12.8188ZM115.576 4.36212C115.222 4.21279 114.79 4.03203 114.287 3.82768C113.163 3.32468 112.252 2.95529 111.56 2.71951C110.869 2.46801 110.209 2.27939 109.58 2.14578C108.967 1.99645 108.315 1.92571 107.6 1.92571H103.011V0.471728L115.584 0.495305V4.36212H115.576Z" fill="#F3F7FF"/>
<path d="M137.191 20.0566H141.309L141.301 24.34H137.184L137.191 20.0566Z" fill="#4E7BBE"/>
<path d="M162.777 24.3793V24.1906C163.359 23.8999 163.791 23.6091 164.066 23.3104C164.357 22.996 164.561 22.5795 164.663 22.0529C164.773 21.5263 164.82 20.764 164.828 19.758L164.852 5.20237C164.852 4.15707 164.805 3.37899 164.702 2.87599C164.592 2.34942 164.396 1.94073 164.105 1.64993C163.83 1.33556 163.406 1.04476 162.817 0.769678V0.581055L171.931 0.596771V0.7854C171.326 1.05262 170.871 1.35127 170.58 1.66565C170.305 1.95645 170.116 2.36514 170.014 2.89172C169.904 3.39472 169.849 4.1728 169.849 5.21809L169.826 19.7737C169.826 20.7797 169.873 21.542 169.975 22.0686C170.077 22.5952 170.266 23.0117 170.541 23.3261C170.831 23.6169 171.271 23.9156 171.861 24.2064V24.395L162.777 24.3793Z" fill="#F3F7FF"/>
<path d="M179.428 11.9299H182.979C184.912 11.9377 186.429 11.5369 187.545 10.7195C188.676 9.90215 189.242 8.60535 189.242 6.82127C189.25 5.16294 188.747 3.95259 187.741 3.17451C186.759 2.39643 185.392 2.00346 183.632 2.00346H179.923V0.612353H184.197C187.49 0.628072 190.012 1.11535 191.772 2.08205C193.524 3.02518 194.404 4.61278 194.396 6.83699C194.396 9.12407 193.398 10.7745 191.403 11.7963C189.43 12.8023 186.775 13.2974 183.419 13.2895H179.428V11.9299ZM174.312 24.4027V24.2141C174.902 23.9233 175.334 23.6325 175.609 23.3338C175.9 23.0195 176.096 22.6029 176.206 22.0763C176.308 21.5498 176.363 20.7874 176.363 19.7814L176.395 5.22581C176.395 4.18051 176.348 3.40243 176.238 2.89943C176.136 2.37285 175.939 1.96417 175.648 1.67337C175.373 1.35899 174.949 1.06819 174.36 0.793116V0.604492L181.4 0.620208L181.361 19.7971C181.361 20.8031 181.416 21.5655 181.518 22.0921C181.644 22.6186 181.864 23.0352 182.178 23.3496C182.492 23.6404 182.972 23.939 183.616 24.2298V24.4184L174.312 24.4027Z" fill="#F3F7FF"/>
<path d="M205.569 24.9923C203.762 24.9923 202.143 24.6858 200.698 24.0727C199.275 23.4597 198.112 22.5559 197.217 21.3612C196.313 20.143 195.755 18.6655 195.527 16.9286H199.928C200.148 18.9248 200.721 20.536 201.641 21.7542C202.583 22.9724 203.911 23.5933 205.632 23.6169C206.85 23.6169 207.824 23.3182 208.555 22.7131C209.294 22.0843 209.663 21.2276 209.663 20.1352C209.687 19.3571 209.49 18.6655 209.066 18.0603C208.649 17.4551 208.068 16.8971 207.314 16.3941C206.583 15.8675 205.499 15.2073 204.076 14.4057L203.636 14.1542L203.322 13.997C201.821 13.156 200.611 12.4094 199.715 11.7571C198.812 11.1047 198.081 10.3502 197.515 9.48571C196.973 8.60546 196.706 7.59946 196.706 6.46771C196.706 5.17091 197.06 4.05488 197.751 3.13533C198.443 2.1922 199.385 1.48486 200.58 1.00543C201.798 0.502434 203.173 0.258789 204.705 0.258789C206.276 0.258789 207.707 0.52601 209.003 1.05259C210.307 1.55559 211.384 2.32581 212.24 3.35539C213.12 4.38497 213.702 5.65033 213.993 7.15933H209.655C209.553 6.10617 209.302 5.17091 208.909 4.35353C208.508 3.51257 207.958 2.85239 207.243 2.37297C206.536 1.89354 205.695 1.63418 204.729 1.6106C203.581 1.6106 202.67 1.88568 201.994 2.45156C201.342 3.01743 201.02 3.77979 201.02 4.7465C201.012 5.52458 201.232 6.21621 201.672 6.82138C202.112 7.41084 202.693 7.96885 203.432 8.48757C204.186 8.99057 205.239 9.61146 206.599 10.3502L207.039 10.6017C208.649 11.5056 209.914 12.2915 210.842 12.9674C211.777 13.6197 212.547 14.3978 213.128 15.3017C213.71 16.2055 214.008 17.2586 214 18.4769C214 19.8208 213.631 20.984 212.892 21.9664C212.185 22.9488 211.187 23.7033 209.907 24.2221C208.649 24.7408 207.204 25.0001 205.569 25.0001V24.9923Z" fill="#F3F7FF"/>
<path d="M45.4319 12.6609C45.3847 13.8319 44.9369 14.7986 44.104 15.5689C43.6876 15.954 43.2239 16.2448 42.6975 16.4413C42.7289 16.5277 42.7682 16.6692 42.8075 16.8657C42.9882 17.6516 42.9804 18.3983 42.7683 19.0899C42.564 19.7894 42.1632 20.4024 41.5818 20.9447C40.9217 21.5499 40.1674 21.9114 39.3109 22.0214C38.4545 22.1315 37.6844 22.0214 37.0008 21.6913C36.7493 22.2022 36.4193 22.6502 36.0186 23.0196C35.1857 23.7898 34.18 24.1513 33.017 24.1042C32.4827 24.0806 31.9563 23.9548 31.4534 23.7191C30.9427 23.4833 30.5105 23.1689 30.1333 22.7602C29.8426 22.4458 29.6147 22.1157 29.4654 21.7621C29.4026 21.6756 29.3476 21.542 29.2768 21.3691L28.8525 21.4791C28.1139 21.6678 27.3753 21.652 26.6367 21.432C25.8981 21.2119 25.2695 20.8189 24.7509 20.2688C24.2402 19.7108 23.9023 19.0506 23.7451 18.2882C23.5801 17.5259 23.6273 16.7871 23.8709 16.064C23.9023 15.9697 23.9494 15.8361 24.028 15.671C23.8158 15.5453 23.698 15.4667 23.6508 15.451C23.3208 15.2702 22.9987 15.0109 22.7001 14.6808C22.3229 14.2799 22.0401 13.8162 21.8515 13.3054C21.6629 12.7867 21.5765 12.2522 21.6079 11.6942C21.6865 10.5153 22.1501 9.54072 22.983 8.7705C23.368 8.42469 23.808 8.14175 24.3187 7.92955L24.2401 7.61517C24.0516 6.89997 24.0594 6.17691 24.2559 5.43812C24.4523 4.7072 24.853 4.07059 25.4345 3.52829C25.9924 3.01743 26.621 2.67947 27.3203 2.53015C28.0196 2.37296 28.7425 2.4044 29.4733 2.6166C29.5911 2.64804 29.764 2.70305 29.984 2.78165C30.2591 2.22363 30.6126 1.75207 31.0212 1.3591C31.8698 0.57316 32.8756 0.20377 34.0228 0.243067C34.5886 0.266646 35.115 0.392394 35.6022 0.628176C36.1051 0.863957 36.5293 1.17833 36.9143 1.58702C37.2129 1.91712 37.4408 2.25507 37.5979 2.60088C37.6215 2.62446 37.6844 2.75807 37.7787 2.99385C37.9515 2.92312 38.0851 2.88382 38.1873 2.8681C38.9337 2.67947 39.6723 2.69519 40.4188 2.92312C41.1574 3.15104 41.7939 3.54401 42.3046 4.09417C42.8232 4.65218 43.1532 5.31237 43.3104 6.06687C43.4597 6.82137 43.4204 7.56015 43.1689 8.28322L43.0275 8.69191C43.1925 8.7705 43.3182 8.84123 43.4047 8.90411C43.7347 9.08488 44.049 9.33637 44.3398 9.65861C44.7169 10.0594 44.9998 10.531 45.1884 11.0576C45.3769 11.5842 45.4633 12.1186 45.4319 12.6452H45.4398L45.4319 12.6609Z" fill="#4E7BBE"/>
<path d="M130.253 1.90162H125.161C124.493 1.89376 123.865 1.96448 123.275 2.10591C122.686 2.23163 122.073 2.42807 121.421 2.70308C120.792 2.95452 119.912 3.3474 118.781 3.88957C118.38 4.05458 117.956 4.2353 117.492 4.42388V0.495117L130.261 0.534407" fill="#F3F7FF"/>
<path d="M123.172 24.3009V24.1122C123.738 23.8214 124.17 23.5306 124.461 23.232C124.751 22.9176 124.956 22.5011 125.058 21.9745C125.168 21.4479 125.215 20.6855 125.223 19.6795L125.254 0.879883H130.252L130.22 19.6874C130.22 20.6934 130.259 21.4558 130.338 21.9823C130.44 22.5089 130.644 22.9255 130.935 23.2398C131.226 23.5306 131.666 23.8293 132.255 24.1201V24.3087H128.829L126.598 24.3009H123.172Z" fill="#F3F7FF"/>
<path d="M125.34 0.526548L138.1 0.495117V4.42388C137.645 4.2353 137.213 4.06244 136.82 3.88957C135.688 3.3474 134.808 2.94667 134.18 2.70308C133.527 2.42807 132.915 2.23163 132.325 2.10591C131.736 1.96448 131.107 1.8859 130.439 1.8859H125.348" fill="#F3F7FF"/>
<path d="M148.258 0.557845L161.018 0.518555V4.44732C160.563 4.25874 160.131 4.08588 159.738 3.91301C158.606 3.37084 157.726 2.9701 157.098 2.72652C156.445 2.45151 155.832 2.25507 155.243 2.12935C154.654 1.98792 154.025 1.90934 153.357 1.90934H148.266" fill="#F3F7FF"/>
<path d="M151.915 24.3321H149.684L146.258 24.3399V24.1513C146.847 23.8605 147.279 23.5618 147.578 23.271C147.869 22.9567 148.073 22.5401 148.175 22.0135C148.254 21.487 148.301 20.7246 148.293 19.7186L148.262 0.918945H153.259L153.29 19.7107C153.29 20.7167 153.345 21.4791 153.455 22.0057C153.557 22.5323 153.762 22.9488 154.053 23.2632C154.343 23.554 154.775 23.8448 155.341 24.1434V24.3321H151.915Z" fill="#F3F7FF"/>
<path d="M153.171 1.92505H148.079C147.411 1.9172 146.783 1.98792 146.193 2.12935C145.604 2.25507 144.991 2.45151 144.339 2.72652C143.71 2.97796 142.83 3.37084 141.699 3.91301C141.298 4.07802 140.874 4.25874 140.41 4.44732V0.518555L153.179 0.549986" fill="#F3F7FF"/>
<path d="M5.11526 11.5998H8.66688C10.592 11.6077 12.1163 11.2068 13.2242 10.3894C14.3635 9.57206 14.9293 8.27527 14.9293 6.49119C14.9372 4.83286 14.4343 3.62251 13.4285 2.84443C12.4463 2.06635 11.0712 1.67338 9.31116 1.67338H5.60243L5.61029 0.282269H9.88474C13.1692 0.297988 15.6993 0.785272 17.4516 1.75198C19.2116 2.6951 20.0918 4.2827 20.0839 6.50691C20.0839 8.79399 19.086 10.4445 17.0901 11.4662C15.1179 12.4722 12.4542 12.9673 9.10686 12.9595H5.11526V11.5998ZM0 24.0726V23.884C0.589315 23.5932 1.02149 23.3024 1.28865 23.0038C1.58723 22.6894 1.78369 22.2728 1.89369 21.7463C1.99584 21.2197 2.05081 20.4573 2.05081 19.4513L2.08227 4.89573C2.08227 3.85043 2.02721 3.07235 1.92506 2.56935C1.82291 2.04277 1.62647 1.63409 1.33574 1.34329C1.06073 1.02892 0.628649 0.730257 0.0471912 0.463038V0.274414H3.47306L7.08751 0.29013L7.04819 19.467C7.04819 20.473 7.09539 21.2354 7.20539 21.762C7.33111 22.2886 7.54323 22.7051 7.85753 23.0195C8.17184 23.3181 8.65898 23.6089 9.30329 23.8997V24.0884H5.53174L3.42587 24.0805H0V24.0726Z" fill="#F3F7FF"/>
<path d="M60.1442 24.6235C57.6769 24.6235 55.5161 24.1047 53.6774 23.0673C51.8309 22.0141 50.4087 20.568 49.4108 18.7211C48.4286 16.8505 47.9414 14.7442 47.9414 12.4021C47.9493 9.91068 48.4993 7.72578 49.5915 5.8631C50.6994 3.97685 52.2159 2.53858 54.1253 1.53258C56.0504 0.510858 58.2191 0 60.6313 0C63.5622 0 66.0609 0.754496 68.1117 2.24778C70.1625 3.74106 71.5297 5.87096 72.2133 8.63746H67.4359C67.0823 6.46827 66.3358 4.74707 65.1808 3.46599C64.0336 2.18491 62.5486 1.54044 60.7256 1.54044C59.1698 1.54044 57.8418 1.98842 56.7261 2.88439C55.6182 3.76464 54.7696 4.96713 54.1802 6.49185C53.5909 8.00085 53.2924 9.66705 53.2846 11.4904C53.2846 13.526 53.6067 15.3022 54.251 16.8348C54.8953 18.3674 55.8461 19.5541 57.1033 20.3951C58.3605 21.2361 59.8927 21.6605 61.6921 21.6605C64.1201 21.6605 66.1001 20.9453 67.6323 19.4991C69.1881 18.053 70.1861 16.0803 70.634 13.5653H72.4255C72.0876 15.8131 71.3804 17.7543 70.3118 19.4127C69.2589 21.0631 67.8681 22.3521 66.1551 23.2716C64.4343 24.1676 62.4307 24.6156 60.1442 24.6156V24.6235Z" fill="#F3F7FF"/>
</svg>
