<svg width="214" height="25" viewBox="0 0 214 25" fill="none" xmlns="http://www.w3.org/2000/svg">
<path d="M80.0605 13.5962L89.0652 3.96059C89.6309 3.33184 90.0945 2.76597 90.4481 2.26297C90.8096 1.75997 91.1396 1.24125 91.4539 0.691093L91.5796 0.439593H96.7341V0.730392C95.7048 0.981893 94.864 1.28054 94.2197 1.63422C93.5047 1.98789 92.8368 2.49089 92.2082 3.14322L80.2412 15.286L80.0526 13.5883L80.0605 13.5962ZM74.2852 24.2142V24.0256C74.8745 23.7348 75.3066 23.4362 75.5738 23.1454C75.8645 22.831 76.0688 22.4144 76.171 21.8879C76.281 21.3613 76.3282 20.5989 76.336 19.5929L76.3596 5.03733C76.3596 3.99203 76.3124 3.21396 76.2103 2.71096C76.1081 2.18438 75.9117 1.77569 75.6131 1.48489C75.3381 1.17052 74.9138 0.871858 74.3245 0.604639V0.416016H77.7504H79.9819L83.4078 0.423871V0.6125C82.8185 0.887579 82.3784 1.17837 82.0877 1.49275C81.797 1.78355 81.5927 2.19224 81.4906 2.71882C81.4041 3.22182 81.3648 3.9999 81.3648 5.04519L81.3334 19.6008C81.3334 20.6068 81.3727 21.3691 81.4591 21.8957C81.5612 22.4223 81.7577 22.8388 82.0563 23.1532C82.347 23.444 82.787 23.7427 83.3763 24.0335V24.2221H79.9505H77.7189L74.293 24.2142H74.2852ZM82.6377 11.9379L85.6943 9.14779L97.3863 24.0099V24.2614L91.3832 24.2535L82.6377 11.9457V11.9379Z" fill="#F6FFFC"/>
<path d="M103.098 22.8238L107.907 22.8002C108.936 22.8002 109.832 22.7216 110.61 22.5566C111.403 22.3916 112.221 22.1322 113.061 21.7785C113.918 21.4249 115.01 20.914 116.33 20.2459V24.3014L103.09 24.2778V22.8317L103.098 22.8238ZM98.2891 24.2621V24.0735C98.8784 23.7827 99.3106 23.4919 99.5777 23.1932C99.8684 22.8788 100.073 22.4623 100.175 21.9357C100.277 21.4091 100.332 20.6468 100.34 19.6408L100.363 5.08518C100.363 4.03989 100.316 3.26181 100.214 2.75881C100.112 2.23223 99.9078 1.82354 99.617 1.53274C99.342 1.21837 98.9177 0.91971 98.3284 0.652491V0.463867H101.754L105.369 0.479583L105.322 24.2778H101.707L98.2812 24.2621H98.2891ZM113.871 12.8188C112.653 12.7324 111.411 12.6695 110.13 12.6223C108.873 12.5752 107.797 12.5516 106.893 12.5516H103.624V11.1605H106.893C108.677 11.1683 111.003 11.0898 113.871 10.9247V12.811V12.8188ZM115.584 4.36212C115.23 4.21279 114.798 4.03203 114.295 3.82768C113.163 3.32468 112.252 2.95529 111.56 2.71951C110.869 2.46801 110.209 2.27939 109.58 2.15364C108.975 2.00431 108.315 1.93357 107.6 1.93357H103.011V0.479583L115.584 0.503167V4.36998V4.36212Z" fill="#F6FFFC"/>
<path d="M137.195 20.0566H141.314L141.306 24.34H137.188V20.0566H137.195Z" fill="#72C0A2"/>
<path d="M162.777 24.3793V24.1906C163.367 23.8999 163.791 23.6091 164.066 23.3104C164.357 22.996 164.561 22.5795 164.663 22.0529C164.773 21.5263 164.828 20.764 164.828 19.758L164.852 5.20237C164.86 4.15707 164.805 3.37899 164.702 2.87599C164.6 2.34942 164.396 1.94073 164.105 1.64993C163.838 1.33556 163.406 1.04476 162.817 0.769678V0.581055H166.243L168.474 0.588916H171.931V0.7854C171.326 1.05262 170.879 1.35127 170.58 1.66565C170.305 1.95645 170.116 2.36514 170.014 2.89172C169.904 3.39472 169.857 4.1728 169.849 5.21809L169.826 19.7737C169.826 20.7797 169.873 21.542 169.975 22.0686C170.085 22.5952 170.266 23.0117 170.541 23.3261C170.831 23.6169 171.271 23.9156 171.861 24.2064V24.395H168.435L166.203 24.3871H162.777V24.3793Z" fill="#F6FFFC"/>
<path d="M179.424 11.9299H182.975C184.908 11.9377 186.425 11.5369 187.541 10.7195C188.672 9.90215 189.238 8.60535 189.246 6.82127C189.246 5.16294 188.743 3.95259 187.737 3.17451C186.755 2.39643 185.388 2.00346 183.628 2.00346H179.919V0.612353H184.193C187.486 0.628072 190.008 1.11535 191.768 2.08205C193.528 3.02518 194.4 4.61278 194.4 6.83699C194.392 9.12407 193.395 10.7745 191.399 11.7963C189.434 12.8023 186.771 13.2974 183.415 13.2895H179.424V11.9299ZM174.309 24.4027V24.2141C174.898 23.9233 175.33 23.6325 175.605 23.3338C175.896 23.0195 176.1 22.6029 176.202 22.0763C176.304 21.5498 176.359 20.7874 176.367 19.7814L176.391 5.22581C176.391 4.18051 176.344 3.40243 176.242 2.89943C176.132 2.37285 175.935 1.96417 175.644 1.67337C175.369 1.35899 174.945 1.06033 174.356 0.793116V0.604492H177.782L181.396 0.620208L181.365 19.7971C181.365 20.8031 181.412 21.5655 181.514 22.0921C181.64 22.6186 181.86 23.0352 182.174 23.3496C182.488 23.6404 182.968 23.939 183.62 24.2298V24.4184H179.84H177.734L174.309 24.4106V24.4027Z" fill="#F6FFFC"/>
<path d="M205.569 24.9923C203.77 24.9923 202.143 24.6858 200.698 24.0727C199.275 23.4597 198.112 22.5559 197.217 21.3612C196.313 20.143 195.755 18.6655 195.527 16.9286H199.928C200.155 18.9248 200.729 20.536 201.648 21.7542C202.583 22.9724 203.919 23.5933 205.632 23.6169C206.85 23.6169 207.824 23.3182 208.555 22.7131C209.294 22.0843 209.663 21.2276 209.663 20.1352C209.687 19.3571 209.49 18.6655 209.074 18.0603C208.649 17.4551 208.068 16.8971 207.314 16.3941C206.583 15.8675 205.506 15.2073 204.076 14.4057L203.636 14.1542L203.322 13.997C201.821 13.156 200.619 12.4094 199.715 11.7571C198.812 11.1047 198.081 10.3502 197.523 9.48571C196.973 8.60546 196.706 7.59946 196.706 6.46771C196.714 5.17091 197.06 4.05488 197.751 3.13533C198.442 2.1922 199.385 1.48486 200.588 1.00543C201.798 0.502434 203.173 0.258789 204.705 0.258789C206.276 0.258789 207.707 0.52601 209.011 1.05259C210.307 1.55559 211.384 2.32581 212.24 3.35539C213.12 4.38497 213.702 5.65033 213.993 7.15933H209.655C209.553 6.10617 209.302 5.17091 208.909 4.35353C208.508 3.51257 207.958 2.85239 207.243 2.37297C206.536 1.89354 205.695 1.63418 204.728 1.6106C203.581 1.6106 202.67 1.88568 201.994 2.45156C201.342 3.01743 201.02 3.77979 201.02 4.7465C201.012 5.52458 201.232 6.21621 201.672 6.82138C202.112 7.41084 202.701 7.96885 203.432 8.48757C204.186 8.99057 205.239 9.61146 206.599 10.3502L206.819 10.476L207.039 10.6017C208.649 11.5056 209.922 12.2915 210.842 12.9674C211.785 13.6197 212.547 14.3978 213.128 15.3017C213.718 16.2055 214.008 17.2586 214 18.4769C214 19.8208 213.631 20.984 212.9 21.9664C212.185 22.9488 211.187 23.7033 209.907 24.2221C208.649 24.7408 207.204 25.0001 205.569 25.0001V24.9923Z" fill="#F6FFFC"/>
<path d="M39.0531 22.6983L34.9043 18.3206L33.0421 24.0658L31.6356 18.1948L27.1568 22.2346L28.8776 16.4501L22.9766 17.7154L27.3532 13.5657L21.6094 11.703L27.4789 10.2962L23.4402 5.8163L29.2233 7.53751L27.9661 1.63511L32.1149 6.01279L33.9771 0.267578L35.3837 6.13854L39.8624 2.09882L38.1416 7.88333L44.0426 6.62583L39.666 10.7756L45.4098 12.6383L39.5403 14.0451L43.5791 18.5249L37.7959 16.8037L39.0531 22.7061V22.6983Z" fill="#72C0A2"/>
<path d="M130.253 1.90195H125.161C124.493 1.89409 123.865 1.96482 123.275 2.10629C122.686 2.23204 122.073 2.42852 121.421 2.7036C120.792 2.9551 119.912 3.34807 118.781 3.89037C118.38 4.05542 117.956 4.23619 117.492 4.42481V0.495117L130.261 0.534417" fill="#F6FFFC"/>
<path d="M123.176 24.3018V24.1132C123.742 23.8224 124.174 23.5316 124.464 23.233C124.755 22.9186 124.959 22.502 125.062 21.9755C125.172 21.4489 125.219 20.6865 125.227 19.6805L125.258 0.880859H130.255L130.224 19.6884C130.224 20.6944 130.263 21.4567 130.342 21.9833C130.444 22.5099 130.648 22.9264 130.939 23.2408C131.23 23.5316 131.67 23.8303 132.259 24.1211V24.3097H128.833L126.602 24.3018H123.176Z" fill="#F6FFFC"/>
<path d="M125.344 0.526555L138.104 0.495117V4.42481C137.649 4.23619 137.216 4.06328 136.824 3.89037C135.692 3.34807 134.812 2.94724 134.183 2.7036C133.531 2.42852 132.918 2.23204 132.329 2.10629C131.74 1.96482 131.111 1.88623 130.443 1.88623H125.352" fill="#F6FFFC"/>
<path d="M148.258 0.556877L161.018 0.517578V4.44727C160.563 4.25865 160.131 4.08574 159.738 3.91283C158.606 3.37054 157.726 2.9697 157.098 2.72606C156.445 2.45099 155.832 2.25451 155.243 2.12875C154.654 1.98729 154.025 1.90869 153.357 1.90869H148.266" fill="#F6FFFC"/>
<path d="M151.911 24.3311H149.68L146.254 24.3389V24.1503C146.843 23.8595 147.275 23.5609 147.574 23.2701C147.865 22.9557 148.069 22.5391 148.171 22.0126C148.25 21.486 148.297 20.7236 148.289 19.7176L148.258 0.917969H153.255L153.286 19.7098C153.286 20.7158 153.341 21.4781 153.451 22.0047C153.554 22.5313 153.758 22.9478 154.049 23.2622C154.339 23.553 154.771 23.8438 155.337 24.1425V24.3311H151.911Z" fill="#F6FFFC"/>
<path d="M153.167 1.92441H148.075C147.407 1.91655 146.779 1.98729 146.189 2.12875C145.6 2.25451 144.987 2.45099 144.335 2.72606C143.706 2.97756 142.826 3.37054 141.695 3.91283C141.294 4.07788 140.87 4.25865 140.406 4.44727V0.517578L153.175 0.549016" fill="#F6FFFC"/>
<path d="M5.11526 11.5998H8.66689C10.592 11.6077 12.1163 11.2068 13.2242 10.3894C14.3636 9.57206 14.9293 8.27527 14.9293 6.49119C14.9372 4.83286 14.4343 3.62251 13.4286 2.84443C12.4464 2.06635 11.0713 1.67338 9.31116 1.67338H5.60243L5.61029 0.282269H9.8848C13.1692 0.297988 15.6994 0.785272 17.4516 1.75198C19.2117 2.6951 20.0917 4.2827 20.0839 6.50691C20.0839 8.79399 19.086 10.4445 17.0901 11.4662C15.1179 12.4722 12.4542 12.9673 9.10691 12.9595H5.11526V11.5998ZM0 24.0726V23.884C0.589315 23.5932 1.02149 23.3024 1.28865 23.0038C1.58723 22.6894 1.78364 22.2728 1.89365 21.7463C1.99579 21.2197 2.05081 20.4573 2.05081 19.4513L2.08227 4.89573C2.08227 3.85043 2.02725 3.07235 1.92511 2.56935C1.82296 2.04277 1.62652 1.63409 1.33579 1.34329C1.06078 1.02892 0.628601 0.730257 0.0471433 0.463038V0.274414H3.47302L7.08751 0.29013L7.04819 19.467C7.04819 20.473 7.09534 21.2354 7.20535 21.762C7.33107 22.2886 7.54324 22.7051 7.85754 23.0195C8.17184 23.3181 8.65903 23.6089 9.30335 23.8997V24.0884H5.53169L3.42587 24.0805H0V24.0726Z" fill="#F6FFFC"/>
<path d="M60.1441 24.6235C57.6769 24.6235 55.5161 24.1047 53.6774 23.0673C51.8309 22.0141 50.4087 20.568 49.4108 18.7211C48.4286 16.8505 47.9414 14.7442 47.9414 12.4021C47.9493 9.91068 48.4993 7.72578 49.5915 5.8631C50.6994 3.97685 52.2159 2.53858 54.1253 1.53258C56.0504 0.510858 58.219 0 60.6313 0C63.5622 0 66.0609 0.754496 68.1117 2.24778C70.1625 3.74106 71.5297 5.87096 72.2134 8.63746H67.436C67.0824 6.46827 66.3359 4.74707 65.1808 3.46599C64.0336 2.18491 62.5486 1.54044 60.7256 1.54044C59.1698 1.54044 57.8419 1.98842 56.7261 2.88439C55.6182 3.76464 54.7696 4.96713 54.1803 6.49185C53.591 8.00085 53.2924 9.66705 53.2845 11.4904C53.2845 13.526 53.6067 15.3022 54.251 16.8348C54.8953 18.3674 55.8461 19.5541 57.1033 20.3951C58.3605 21.2361 59.8927 21.6605 61.6921 21.6605C64.1201 21.6605 66.1002 20.9453 67.6324 19.4991C69.1882 18.053 70.1861 16.0803 70.634 13.5653H72.4255C72.0876 15.8131 71.3804 17.7543 70.3118 19.4127C69.2589 21.0631 67.8681 22.3521 66.1552 23.2716C64.4344 24.1676 62.4307 24.6156 60.1441 24.6156V24.6235Z" fill="#F6FFFC"/>
</svg>
