<svg width="214" height="25" viewBox="0 0 214 25" fill="none" xmlns="http://www.w3.org/2000/svg">
<path d="M5.11526 11.5998H8.66688C10.592 11.6077 12.1164 11.2068 13.2243 10.3894C14.3636 9.57206 14.9293 8.27527 14.9293 6.49119C14.9372 4.83286 14.4344 3.62251 13.4286 2.84443C12.4464 2.06635 11.0713 1.67338 9.31126 1.67338H5.60233L5.6102 0.282269H9.88484C13.1693 0.297988 15.6993 0.785272 17.4516 1.75198C19.2116 2.6951 20.0918 4.2827 20.0839 6.50691C20.0839 8.79399 19.086 10.4445 17.0901 11.4662C15.1179 12.4722 12.4543 12.9673 9.10695 12.9595H5.11526V11.5998ZM0 24.0726V23.884C0.589315 23.5932 1.0214 23.3024 1.28855 23.0038C1.58714 22.6894 1.78359 22.2728 1.8936 21.7463C1.99574 21.2197 2.0509 20.4573 2.0509 19.4513L2.08217 4.89573C2.08217 3.85043 2.02721 3.07235 1.92506 2.56935C1.82291 2.04277 1.62647 1.63409 1.33574 1.34329C1.06073 1.02892 0.628649 0.730257 0.0471912 0.463038V0.274414H3.47297L7.08751 0.29013L7.04819 19.467C7.04819 20.473 7.09529 21.2354 7.2053 21.762C7.33102 22.2886 7.54323 22.7051 7.85753 23.0195C8.17184 23.3181 8.65907 23.6089 9.30339 23.8997V24.0884H5.53174L3.42597 24.0805H0V24.0726Z" fill="#FFF3F8"/>
<path d="M60.1442 24.6235C57.6769 24.6235 55.5161 24.1047 53.6774 23.0673C51.8309 22.0141 50.4086 20.568 49.4107 18.7211C48.4285 16.8505 47.9414 14.7442 47.9414 12.4021C47.9493 9.91068 48.4994 7.72578 49.5916 5.8631C50.6995 3.97685 52.2158 2.53858 54.1252 1.53258C56.0503 0.510858 58.219 0 60.6312 0C63.5621 0 66.0608 0.754496 68.1116 2.24778C70.1625 3.74106 71.5296 5.87096 72.2132 8.63746H67.436C67.0824 6.46827 66.3359 4.74707 65.1808 3.46599C64.0336 2.18491 62.5486 1.54044 60.7256 1.54044C59.1698 1.54044 57.8418 1.98842 56.7261 2.88439C55.6182 3.76464 54.7696 4.96713 54.1802 6.49185C53.5909 8.00085 53.2924 9.66705 53.2846 11.4904C53.2846 13.526 53.6067 15.3022 54.251 16.8348C54.8953 18.3674 55.846 19.5541 57.1032 20.3951C58.3604 21.2361 59.8927 21.6605 61.6921 21.6605C64.1201 21.6605 66.1002 20.9453 67.6324 19.4991C69.1882 18.053 70.186 16.0803 70.6339 13.5653H72.4254C72.0875 15.8131 71.3804 17.7543 70.3118 19.4127C69.2589 21.0631 67.8681 22.3521 66.1551 23.2716C64.4343 24.1676 62.4307 24.6156 60.1442 24.6156V24.6235Z" fill="#FFF3F8"/>
<path d="M80.0603 13.5962L89.0652 3.96059C89.631 3.33184 90.0946 2.76597 90.4482 2.26297C90.8096 1.75997 91.1395 1.24125 91.4616 0.691093L91.5875 0.439593H96.7421V0.730392C95.7127 0.981893 94.8718 1.28054 94.2196 1.63422C93.5124 1.98789 92.8368 2.49089 92.2082 3.14322L80.2412 15.286L80.0603 13.5883V13.5962ZM74.2852 24.2142V24.0256C74.8745 23.7348 75.3066 23.4362 75.5737 23.1454C75.8723 22.831 76.0687 22.4144 76.1788 21.8879C76.2809 21.3613 76.3359 20.5989 76.3359 19.5929L76.3673 5.03733C76.3673 3.99203 76.3124 3.21396 76.2102 2.71096C76.1081 2.18438 75.9116 1.77569 75.613 1.48489C75.3459 1.17052 74.9138 0.871858 74.3323 0.604639V0.416016H77.7581L79.9897 0.423871H83.4155V0.620355C82.8262 0.895434 82.3862 1.18623 82.0876 1.50061C81.7969 1.79141 81.6005 2.20009 81.4905 2.72667C81.404 3.22967 81.3648 4.00776 81.3648 5.05306L81.3333 19.6086C81.3333 20.6146 81.3726 21.377 81.459 21.9036C81.5611 22.4302 81.7576 22.8467 82.0483 23.1611C82.3469 23.4519 82.7792 23.7505 83.3685 24.0413V24.23H79.9425L77.7109 24.2221H74.2852V24.2142ZM82.6376 11.9379L85.6943 9.14779L97.3862 24.0099V24.2614H91.3832L82.6376 11.9457V11.9379Z" fill="#FFF3F8"/>
<path d="M103.098 22.8238L107.907 22.8002C108.936 22.8002 109.832 22.7216 110.61 22.5566C111.411 22.3916 112.228 22.1322 113.061 21.7785C113.925 21.4249 115.018 20.914 116.338 20.2459V24.3014L103.098 24.2778V22.8317V22.8238ZM98.2891 24.2621V24.0735C98.8784 23.7827 99.3026 23.4919 99.5776 23.1932C99.8683 22.8788 100.073 22.4623 100.175 21.9357C100.285 21.4091 100.34 20.6468 100.34 19.6408L100.363 5.08518C100.363 4.03989 100.316 3.26181 100.214 2.75881C100.112 2.23223 99.9077 1.82354 99.6169 1.53274C99.3419 1.21837 98.9175 0.91971 98.3282 0.652491V0.463867H101.754L105.369 0.479583L105.329 24.2778H101.715L98.2891 24.2621ZM113.863 12.8188C112.652 12.7324 111.403 12.6695 110.122 12.6223C108.865 12.5752 107.789 12.5516 106.885 12.5516H103.616V11.1605H106.885C108.661 11.1683 110.995 11.0898 113.863 10.9247V12.811V12.8188ZM115.576 4.36212C115.222 4.21279 114.79 4.03203 114.295 3.82768C113.163 3.32468 112.252 2.95529 111.56 2.71951C110.869 2.46801 110.209 2.27939 109.58 2.15364C108.975 2.00431 108.315 1.93357 107.6 1.93357H103.011V0.479583L115.584 0.503167V4.36998L115.576 4.36212Z" fill="#FFF3F8"/>
<path d="M137.191 20.0566H141.309L141.301 24.34H137.184L137.191 20.0566Z" fill="#F3A0B9"/>
<path d="M162.777 24.3793V24.1906C163.367 23.8999 163.791 23.6091 164.066 23.3104C164.357 22.996 164.561 22.5795 164.663 22.0529C164.773 21.5263 164.828 20.764 164.828 19.758L164.852 5.20237C164.86 4.15707 164.805 3.37899 164.703 2.87599C164.6 2.34942 164.396 1.94073 164.105 1.64993C163.838 1.33556 163.406 1.04476 162.817 0.769678V0.581055H166.243L168.474 0.588916H171.931V0.7854C171.326 1.05262 170.879 1.35127 170.58 1.66565C170.305 1.95645 170.116 2.36514 170.014 2.89172C169.904 3.39472 169.857 4.1728 169.849 5.21809L169.826 19.7737C169.826 20.7797 169.873 21.542 169.975 22.0686C170.085 22.5952 170.266 23.0117 170.541 23.3261C170.831 23.6169 171.271 23.9156 171.861 24.2064V24.395H168.435L166.203 24.3871H162.777V24.3793Z" fill="#FFF3F8"/>
<path d="M179.428 11.9299H182.979C184.912 11.9377 186.429 11.5369 187.544 10.7195C188.676 9.90215 189.242 8.60535 189.25 6.82127C189.25 5.16294 188.747 3.95259 187.741 3.17451C186.759 2.39643 185.392 2.00346 183.631 2.00346H179.923V0.612353H184.197C187.489 0.628072 190.012 1.11535 191.772 2.08205C193.532 3.02518 194.404 4.61278 194.404 6.83699C194.396 9.12407 193.398 10.7745 191.403 11.7963C189.438 12.8023 186.774 13.2974 183.419 13.2895H179.428V11.9299ZM174.312 24.4027V24.2141C174.902 23.9233 175.334 23.6325 175.609 23.3338C175.9 23.0195 176.104 22.6029 176.206 22.0763C176.308 21.5498 176.363 20.7874 176.371 19.7814L176.395 5.22581C176.395 4.18051 176.348 3.40243 176.245 2.89943C176.135 2.37285 175.939 1.96417 175.648 1.67337C175.373 1.35899 174.949 1.06033 174.359 0.793116V0.604492H177.785L181.4 0.620208L181.369 19.7971C181.361 20.8031 181.416 21.5655 181.518 22.0921C181.644 22.6186 181.864 23.0352 182.178 23.3496C182.492 23.6404 182.971 23.939 183.624 24.2298V24.4184H179.844H177.738L174.312 24.4106V24.4027Z" fill="#FFF3F8"/>
<path d="M205.569 24.9923C203.77 24.9923 202.143 24.6858 200.697 24.0727C199.275 23.4597 198.112 22.5559 197.217 21.3612C196.313 20.143 195.755 18.6655 195.527 16.9286H199.927C200.155 18.9248 200.729 20.536 201.648 21.7542C202.583 22.9724 203.919 23.5933 205.632 23.6169C206.85 23.6169 207.824 23.3182 208.555 22.7131C209.294 22.0843 209.663 21.2276 209.663 20.1352C209.687 19.3571 209.49 18.6655 209.074 18.0603C208.649 17.4551 208.068 16.8971 207.314 16.3941C206.583 15.8675 205.506 15.2073 204.076 14.4057L203.636 14.1542L203.322 13.997C201.821 13.156 200.619 12.4094 199.715 11.7571C198.812 11.1047 198.081 10.3502 197.523 9.48571C196.973 8.60546 196.706 7.59946 196.706 6.46771C196.714 5.17091 197.059 4.05488 197.751 3.13533C198.442 2.1922 199.385 1.48486 200.588 1.00543C201.798 0.502434 203.173 0.258789 204.705 0.258789C206.276 0.258789 207.706 0.52601 209.011 1.05259C210.307 1.55559 211.384 2.32581 212.24 3.35539C213.12 4.38497 213.702 5.65033 213.993 7.15933H209.655C209.553 6.10617 209.302 5.17091 208.909 4.35353C208.508 3.51257 207.958 2.85239 207.243 2.37297C206.536 1.89354 205.695 1.63418 204.728 1.6106C203.581 1.6106 202.67 1.88568 201.994 2.45156C201.342 3.01743 201.02 3.77979 201.02 4.7465C201.012 5.52458 201.232 6.21621 201.672 6.82138C202.112 7.41084 202.701 7.96885 203.432 8.48757C204.186 8.99057 205.239 9.61146 206.598 10.3502L206.819 10.476L207.039 10.6017C208.649 11.5056 209.922 12.2915 210.842 12.9674C211.785 13.6197 212.547 14.3978 213.128 15.3017C213.717 16.2055 214.008 17.2586 214 18.4769C214 19.8208 213.631 20.984 212.9 21.9664C212.185 22.9488 211.187 23.7033 209.906 24.2221C208.649 24.7408 207.204 25.0001 205.569 25.0001V24.9923Z" fill="#FFF3F8"/>
<path d="M28.7356 24.057L26.6847 19.1448L21.758 17.125L23.7775 12.1972L21.7266 7.28503L26.6454 5.22587L28.6648 0.29804L33.5915 2.32576L38.5103 0.266602L40.5612 5.17872L45.4877 7.19858L43.4685 12.1264L45.5192 17.0385L40.6004 19.0898L38.5811 24.0177L33.6544 21.9978L28.7356 24.0491V24.057Z" fill="#F3A0B9"/>
<path d="M130.253 1.90162H125.161C124.493 1.89376 123.865 1.96448 123.275 2.10591C122.686 2.23163 122.073 2.42807 121.421 2.70308C120.792 2.95452 119.912 3.3474 118.781 3.88957C118.38 4.05458 117.956 4.2353 117.492 4.42388V0.495117L130.261 0.534407" fill="#FFF3F8"/>
<path d="M123.172 24.3009V24.1122C123.738 23.8214 124.17 23.5306 124.46 23.232C124.751 22.9176 124.955 22.5011 125.058 21.9745C125.168 21.4479 125.215 20.6855 125.223 19.6795L125.254 0.879883H130.252L130.22 19.6874C130.22 20.6934 130.259 21.4558 130.338 21.9823C130.44 22.5089 130.644 22.9255 130.935 23.2398C131.226 23.5306 131.666 23.8293 132.255 24.1201V24.3087H128.829L126.598 24.3009H123.172Z" fill="#FFF3F8"/>
<path d="M125.34 0.526548L138.1 0.495117V4.42388C137.645 4.2353 137.212 4.06244 136.82 3.88957C135.688 3.3474 134.808 2.94667 134.18 2.70308C133.527 2.42807 132.914 2.23163 132.325 2.10591C131.736 1.96448 131.107 1.8859 130.439 1.8859H125.348" fill="#FFF3F8"/>
<path d="M148.258 0.557845L161.018 0.518555V4.44732C160.563 4.25874 160.131 4.08588 159.738 3.91301C158.606 3.37084 157.726 2.9701 157.098 2.72652C156.445 2.45151 155.833 2.25507 155.243 2.12935C154.654 1.98792 154.025 1.90934 153.357 1.90934H148.266" fill="#FFF3F8"/>
<path d="M151.915 24.3321H149.684L146.258 24.3399V24.1513C146.847 23.8605 147.279 23.5618 147.578 23.271C147.869 22.9567 148.073 22.5401 148.175 22.0135C148.254 21.487 148.301 20.7246 148.293 19.7186L148.262 0.918945H153.259L153.29 19.7107C153.29 20.7167 153.345 21.4791 153.455 22.0057C153.558 22.5323 153.762 22.9488 154.053 23.2632C154.343 23.554 154.775 23.8448 155.341 24.1434V24.3321H151.915Z" fill="#FFF3F8"/>
<path d="M153.171 1.92505H148.079C147.411 1.9172 146.783 1.98792 146.193 2.12935C145.604 2.25507 144.991 2.45151 144.339 2.72652C143.71 2.97796 142.83 3.37084 141.699 3.91301C141.298 4.07802 140.874 4.25874 140.41 4.44732V0.518555L153.179 0.549986" fill="#FFF3F8"/>
</svg>
