<svg width="214" height="25" viewBox="0 0 214 25" fill="none" xmlns="http://www.w3.org/2000/svg">
<path d="M80.0529 13.5962L89.058 3.96059C89.6238 3.33184 90.0874 2.76597 90.441 2.26297C90.7946 1.75997 91.1325 1.24125 91.4468 0.691093L91.5725 0.439593H96.7273V0.730392C95.6979 0.981893 94.8571 1.28054 94.2128 1.63422C93.4977 1.98789 92.8298 2.49089 92.2011 3.14322L80.2336 15.286L80.045 13.5883L80.0529 13.5962ZM74.2774 24.2142V24.0256C74.8667 23.7348 75.2989 23.4362 75.5661 23.1454C75.8568 22.831 76.0611 22.4144 76.1633 21.8879C76.2733 21.3613 76.3204 20.5989 76.3283 19.5929L76.3519 5.03733C76.3519 3.99203 76.3047 3.21396 76.1947 2.71096C76.0926 2.18438 75.8961 1.77569 75.5975 1.48489C75.3225 1.17052 74.8982 0.871858 74.3088 0.604639V0.416016H77.7348H79.9665L83.3925 0.423871V0.6125C82.8032 0.887579 82.3631 1.17837 82.0724 1.49275C81.7816 1.78355 81.5773 2.19224 81.4752 2.71882C81.3887 3.22182 81.3495 3.9999 81.3416 5.04519L81.318 19.6008C81.318 20.6068 81.3573 21.3691 81.4359 21.8957C81.538 22.4223 81.7423 22.8388 82.0331 23.1532C82.3238 23.444 82.7639 23.7427 83.3532 24.0335V24.2221H79.9272L77.6956 24.2142H74.2695H74.2774ZM82.6303 11.9379L85.687 9.14779L97.3873 24.0099V24.2614H91.3839L82.6381 11.9457L82.6303 11.9379Z" fill="#FFFAEA"/>
<path d="M103.094 22.8238L107.903 22.8002C108.933 22.8002 109.828 22.7216 110.606 22.5566C111.4 22.3916 112.217 22.1322 113.058 21.7785C113.922 21.4249 115.007 20.914 116.327 20.2459V24.3014L103.086 24.2778V22.8317L103.094 22.8238ZM98.2852 24.2621V24.0735C98.8745 23.7827 99.3067 23.4919 99.5739 23.1932C99.8646 22.8788 100.069 22.4623 100.171 21.9357C100.281 21.4091 100.328 20.6468 100.336 19.6408L100.368 5.08518C100.368 4.03989 100.32 3.26181 100.21 2.75881C100.108 2.23223 99.9118 1.82354 99.6132 1.53274C99.3382 1.21837 98.9138 0.91971 98.3245 0.652491V0.463867H101.751H105.365L105.318 24.27H101.703L98.2773 24.2542L98.2852 24.2621ZM113.867 12.8188C112.649 12.7324 111.408 12.6695 110.127 12.6223C108.87 12.5752 107.793 12.5516 106.89 12.5516H103.621V11.1605H106.89C108.673 11.1683 110.999 11.0898 113.867 10.9247V12.811V12.8188ZM115.58 4.36212C115.227 4.21279 114.795 4.03203 114.292 3.82768C113.16 3.32468 112.249 2.95529 111.557 2.71951C110.866 2.46801 110.206 2.27939 109.577 2.15364C108.972 2.00431 108.312 1.93357 107.597 1.93357H103.008V0.479583L115.58 0.503167V4.36998V4.36212Z" fill="#FFFAEA"/>
<path d="M137.199 20.0566H141.318V24.34H137.199L137.207 20.0566H137.199Z" fill="#F2BE58"/>
<path d="M162.773 24.3793V24.1906C163.363 23.8999 163.795 23.6091 164.062 23.3104C164.353 22.996 164.557 22.5795 164.659 22.0529C164.769 21.5263 164.816 20.764 164.824 19.758L164.848 5.20237C164.848 4.15707 164.801 3.37899 164.691 2.87599C164.589 2.34942 164.392 1.94073 164.093 1.64993C163.818 1.33556 163.394 1.04476 162.805 0.769678V0.581055H166.231H168.462L171.92 0.588916V0.777539C171.315 1.04476 170.859 1.34341 170.568 1.65779C170.293 1.94858 170.105 2.35728 170.002 2.88386C169.9 3.38686 169.845 4.16493 169.845 5.21023L169.822 19.7658C169.822 20.7718 169.869 21.5342 169.971 22.0608C170.073 22.5873 170.262 23.0039 170.537 23.3183C170.827 23.6091 171.267 23.9077 171.857 24.1985V24.3871H168.431L166.199 24.3793H162.773Z" fill="#FFFAEA"/>
<path d="M179.428 11.9299H182.98C184.905 11.9377 186.429 11.5369 187.537 10.7195C188.669 9.90215 189.235 8.60535 189.242 6.82127C189.242 5.16294 188.747 3.95259 187.742 3.17451C186.759 2.39643 185.384 2.00346 183.624 2.00346H179.915V0.612353H184.19C187.482 0.628072 190.005 1.11535 191.765 2.08205C193.525 3.02518 194.397 4.61278 194.397 6.83699C194.397 9.12407 193.391 10.7745 191.403 11.7963C189.431 12.8023 186.767 13.2974 183.42 13.2895H179.428V11.9299ZM174.313 24.4027V24.2141C174.902 23.9233 175.326 23.6325 175.601 23.3338C175.892 23.0195 176.096 22.6029 176.198 22.0763C176.301 21.5498 176.356 20.7874 176.356 19.7814L176.379 5.22581C176.379 4.18051 176.332 3.40243 176.23 2.89943C176.128 2.37285 175.931 1.96417 175.633 1.67337C175.358 1.35899 174.933 1.06033 174.344 0.793116V0.604492H177.77L181.385 0.620208L181.353 19.7971C181.353 20.8031 181.4 21.5655 181.502 22.0921C181.628 22.6186 181.848 23.0352 182.163 23.3496C182.477 23.6404 182.956 23.939 183.608 24.2298V24.4184H179.837H177.731L174.305 24.4106L174.313 24.4027Z" fill="#FFFAEA"/>
<path d="M205.57 24.9923C203.77 24.9923 202.144 24.6858 200.698 24.0727C199.276 23.4597 198.113 22.5559 197.217 21.3612C196.321 20.143 195.755 18.6655 195.527 16.9286H199.928C200.156 18.9248 200.729 20.536 201.649 21.7542C202.592 22.9724 203.92 23.5933 205.633 23.6169C206.851 23.6169 207.825 23.3182 208.556 22.7131C209.286 22.0843 209.656 21.2276 209.664 20.1352C209.687 19.3571 209.491 18.6655 209.066 18.0603C208.65 17.4551 208.061 16.8971 207.306 16.3941C206.576 15.8675 205.499 15.2073 204.077 14.4057L203.637 14.1542L203.322 13.997C201.814 13.156 200.611 12.4094 199.708 11.7571C198.812 11.1047 198.073 10.3502 197.515 9.48571C196.973 8.60546 196.698 7.59946 196.706 6.46771C196.706 5.17091 197.06 4.05488 197.751 3.13533C198.443 2.1922 199.386 1.48486 200.58 1.00543C201.798 0.502434 203.165 0.258789 204.697 0.258789C206.269 0.258789 207.707 0.52601 209.004 1.05259C210.3 1.55559 211.377 2.32581 212.233 3.35539C213.113 4.38497 213.695 5.65033 213.985 7.15933H209.648C209.546 6.10617 209.294 5.17091 208.901 4.35353C208.501 3.51257 207.951 2.85239 207.236 2.37297C206.521 1.89354 205.688 1.63418 204.721 1.6106C203.566 1.6106 202.654 1.88568 201.987 2.45156C201.334 3.01743 201.012 3.77979 201.004 4.7465C201.004 5.52458 201.224 6.21621 201.664 6.82138C202.104 7.41084 202.686 7.96885 203.425 8.48757C204.179 8.99057 205.232 9.61146 206.599 10.3502L206.819 10.476L207.039 10.6017C208.65 11.5056 209.915 12.2915 210.834 12.9674C211.777 13.6197 212.54 14.3978 213.129 15.3017C213.718 16.2055 214.001 17.2586 214.001 18.4769C214.001 19.8208 213.632 20.984 212.893 21.9664C212.178 22.9488 211.18 23.7033 209.907 24.2221C208.65 24.7408 207.204 25.0001 205.57 25.0001V24.9923Z" fill="#FFFAEA"/>
<path d="M45.3558 15.2473L40.6411 15.208L43.9492 18.5483L39.7138 22.7373L36.4214 19.4128L36.3978 24.0656L30.4416 24.0341L30.4651 19.3185L27.1177 22.6194L22.9294 18.3832L26.2455 15.1137L21.6172 15.0823L21.6643 9.12487L26.3083 9.16417L23.0395 5.85537L27.2827 1.68203L30.5751 5.02227L30.6223 0.306641L36.5785 0.361656L36.5314 5.01441L39.8631 1.72919L44.0435 5.9654L40.6725 9.2742L45.3951 9.3135L45.3479 15.263L45.3558 15.2473Z" fill="#F2BE58"/>
<path d="M130.257 1.90195H125.165C124.497 1.89409 123.869 1.96482 123.279 2.10629C122.69 2.23204 122.077 2.42852 121.425 2.7036C120.796 2.9551 119.916 3.34807 118.785 3.89037C118.384 4.05542 117.96 4.23619 117.496 4.42481V0.495117L130.265 0.534417" fill="#FFFAEA"/>
<path d="M123.18 24.3018V24.1132C123.745 23.8224 124.178 23.5316 124.468 23.233C124.759 22.9186 124.963 22.502 125.065 21.9755C125.175 21.4489 125.223 20.6865 125.23 19.6805L125.262 0.880859H130.259L130.228 19.6884C130.228 20.6944 130.267 21.4567 130.346 21.9833C130.448 22.5099 130.652 22.9264 130.943 23.2408C131.234 23.5316 131.674 23.8303 132.263 24.1211V24.3097H128.837L126.606 24.3018H123.18Z" fill="#FFFAEA"/>
<path d="M125.348 0.526555L138.108 0.495117V4.42481C137.653 4.23619 137.22 4.06328 136.827 3.89037C135.696 3.34807 134.816 2.94724 134.187 2.7036C133.535 2.42852 132.922 2.23204 132.333 2.10629C131.744 1.96482 131.115 1.88623 130.447 1.88623H125.356" fill="#FFFAEA"/>
<path d="M148.27 0.556877L161.03 0.517578V4.44727C160.574 4.25865 160.142 4.08574 159.749 3.91283C158.618 3.37054 157.738 2.9697 157.109 2.72606C156.457 2.45099 155.844 2.25451 155.255 2.12875C154.666 1.98729 154.037 1.90869 153.369 1.90869H148.277" fill="#FFFAEA"/>
<path d="M151.923 24.3311H149.691L146.266 24.3389V24.1503C146.855 23.8595 147.287 23.5609 147.586 23.2701C147.876 22.9557 148.081 22.5391 148.183 22.0126C148.261 21.486 148.309 20.7236 148.301 19.7176L148.269 0.917969H153.267L153.298 19.7098C153.298 20.7158 153.353 21.4781 153.463 22.0047C153.565 22.5313 153.77 22.9478 154.06 23.2622C154.351 23.553 154.783 23.8438 155.349 24.1425V24.3311H151.923Z" fill="#FFFAEA"/>
<path d="M153.179 1.92441H148.087C147.419 1.91655 146.79 1.98729 146.201 2.12875C145.612 2.25451 144.999 2.45099 144.347 2.72606C143.718 2.97756 142.838 3.37054 141.707 3.91283C141.306 4.07788 140.882 4.25865 140.418 4.44727V0.517578L153.186 0.549016" fill="#FFFAEA"/>
<path d="M5.11546 11.5998H8.66721C10.5924 11.6077 12.1168 11.2068 13.2248 10.3894C14.3642 9.57206 14.9299 8.27527 14.9299 6.49119C14.9378 4.83286 14.4349 3.62251 13.4291 2.84443C12.4468 2.06635 11.0717 1.67338 9.31156 1.67338H5.60265L5.61051 0.282269H9.88518C13.1698 0.297988 15.7 0.785272 17.4523 1.75198C19.2125 2.6951 20.0925 4.2827 20.0847 6.50691C20.0847 8.79399 19.0867 10.4445 17.0908 11.4662C15.1185 12.4722 12.4547 12.9673 9.10725 12.9595H5.11546V11.5998ZM0 24.0726V23.884C0.589339 23.5932 1.02152 23.3024 1.28869 23.0038C1.58729 22.6894 1.78374 22.2728 1.89375 21.7463C1.9959 21.2197 2.0509 20.4573 2.0509 19.4513L2.08233 4.89573C2.08233 3.85043 2.02732 3.07235 1.92517 2.56935C1.82302 2.04277 1.62657 1.63409 1.33583 1.34329C1.06081 1.02892 0.628626 0.730257 0.0471452 0.463038V0.274414H3.47317L7.08779 0.29013L7.0485 19.467C7.0485 20.473 7.09564 21.2354 7.20565 21.762C7.33138 22.2886 7.54354 22.7051 7.85785 23.0195C8.17217 23.3181 8.65935 23.6089 9.3037 23.8997V24.0884H5.53192L3.42602 24.0805H0V24.0726Z" fill="#FFFAEA"/>
<path d="M60.1447 24.6235C57.6773 24.6235 55.5164 24.1047 53.6776 23.0673C51.831 22.0141 50.4088 20.568 49.4108 18.7211C48.4286 16.8505 47.9414 14.7442 47.9414 12.4021C47.9493 9.91068 48.4993 7.72578 49.5916 5.8631C50.6995 3.97685 52.2161 2.53858 54.1255 1.53258C56.0507 0.510858 58.2195 0 60.6318 0C63.5628 0 66.0616 0.754496 68.1125 2.24778C70.1634 3.74106 71.5307 5.87096 72.2143 8.63746H67.4368C67.0831 6.46827 66.3366 4.74707 65.1815 3.46599C64.0343 2.18491 62.5492 1.54044 60.7261 1.54044C59.1703 1.54044 57.8423 1.98842 56.7265 2.88439C55.6185 3.76464 54.7699 4.96713 54.1805 6.49185C53.5912 8.00085 53.2926 9.66705 53.2847 11.4904C53.2847 13.526 53.6069 15.3022 54.2513 16.8348C54.8956 18.3674 55.8464 19.5541 57.1037 20.3951C58.3609 21.2361 59.8932 21.6605 61.6926 21.6605C64.1207 21.6605 66.1009 20.9453 67.6332 19.4991C69.1891 18.053 70.187 16.0803 70.6349 13.5653H72.4265C72.0886 15.8131 71.3814 17.7543 70.3127 19.4127C69.2598 21.0631 67.8689 22.3521 66.1559 23.2716C64.435 24.1676 62.4313 24.6156 60.1447 24.6156V24.6235Z" fill="#FFFAEA"/>
</svg>
