<svg width="77" height="77" viewBox="0 0 77 77" fill="none" xmlns="http://www.w3.org/2000/svg">
<circle cx="38.5" cy="38.5" r="38.5" transform="rotate(-180 38.5 38.5)" fill="#4E7BBE"/>
<path d="M56 40C57.1046 40 58 39.1046 58 38C58 36.8954 57.1046 36 56 36L56 40ZM20.1691 36.5858C19.3881 37.3668 19.3881 38.6332 20.1691 39.4142L32.897 52.1421C33.6781 52.9232 34.9444 52.9232 35.7255 52.1421C36.5065 51.3611 36.5065 50.0948 35.7255 49.3137L24.4118 38L35.7255 26.6863C36.5065 25.9052 36.5065 24.6389 35.7255 23.8579C34.9444 23.0768 33.6781 23.0768 32.897 23.8579L20.1691 36.5858ZM56 36L21.5833 36L21.5833 40L56 40L56 36Z" fill="black"/>
</svg>
