<svg width="86" height="86" viewBox="0 0 86 86" fill="none" xmlns="http://www.w3.org/2000/svg">
<path d="M85.5 44.7324C85.3397 48.9002 83.7546 52.3377 80.7803 55.0805C79.2842 56.452 77.6279 57.485 75.7579 58.1974C75.8825 58.5002 76.0072 59.0167 76.1497 59.7114C76.8087 62.5077 76.773 65.1615 76.0072 67.655C75.2592 70.1485 73.8343 72.3393 71.7684 74.245C69.4174 76.4002 66.7281 77.6825 63.6648 78.0744C60.6015 78.4662 57.8587 78.0744 55.4365 76.8989C54.5282 78.7334 53.3527 80.3008 51.9101 81.6366C48.9358 84.3794 45.356 85.6618 41.2062 85.4837C39.3005 85.4125 37.4483 84.9494 35.6317 84.1123C33.8151 83.2752 32.2478 82.1353 30.9298 80.6926C29.8968 79.5705 29.0954 78.3772 28.5433 77.1482C28.3474 76.8454 28.1158 76.3645 27.8843 75.759L26.3704 76.1508C23.7345 76.8276 21.0986 76.7742 18.4627 75.9905C15.8268 75.2068 13.6006 73.8176 11.7661 71.8406C9.93168 69.8458 8.73841 67.5125 8.15067 64.7875C7.56294 62.0802 7.72325 59.4264 8.61376 56.8616C8.72062 56.5232 8.91654 56.0423 9.18369 55.4546C8.41786 54.9915 7.99041 54.7421 7.84793 54.6887C6.65466 54.0297 5.5148 53.1213 4.4462 51.9458C3.11044 50.5031 2.11305 48.8645 1.41846 47.03C0.741673 45.1955 0.438938 43.2897 0.510178 41.2949C0.81295 37.0915 2.45144 33.6184 5.42573 30.8755C6.7793 29.6288 8.36442 28.6314 10.1811 27.8833L9.89608 26.7612C9.2193 24.2143 9.23711 21.6317 9.94951 19.0135C10.6619 16.3953 12.0689 14.1333 14.1349 12.2097C16.1296 10.3752 18.3559 9.18188 20.8671 8.64756C23.3605 8.09542 25.9074 8.20228 28.5433 8.96815C28.9707 9.07502 29.5763 9.27094 30.3421 9.55591C31.3395 7.5611 32.5684 5.86906 34.0644 4.49762C37.0921 1.71913 40.6541 0.383307 44.7861 0.507984C46.7808 0.597038 48.6687 1.04231 50.4319 1.87942C52.1951 2.71653 53.7446 3.85643 55.0803 5.29912C56.1667 6.47463 56.9682 7.68577 57.5381 8.91472C57.6272 9.00378 57.8409 9.46686 58.1971 10.3218C58.8204 10.0902 59.3013 9.92994 59.6397 9.8587C62.2756 9.18188 64.9115 9.25313 67.583 10.0546C70.2367 10.8561 72.4808 12.2454 74.3152 14.2402C76.1497 16.235 77.3429 18.5682 77.8951 21.2577C78.4472 23.9471 78.2869 26.5831 77.4142 29.1479L76.8977 30.6262C77.4854 30.9112 77.9485 31.1605 78.2335 31.3921C79.4089 32.0511 80.5309 32.9416 81.5639 34.0637C82.8997 35.5064 83.8971 37.1628 84.5738 39.0329C85.2506 40.9031 85.5712 42.791 85.4822 44.6968L85.5 44.7324Z" fill="#F5EDE0"/>
</svg>
