<svg width="38" height="24" viewBox="0 0 38 24" fill="none" xmlns="http://www.w3.org/2000/svg">
<path d="M36.418 13.5C37.2464 13.5 37.918 12.8284 37.918 12C37.918 11.1716 37.2464 10.5 36.418 10.5L36.418 13.5ZM0.94064 10.9393C0.354855 11.5251 0.354855 12.4749 0.940639 13.0607L10.4866 22.6066C11.0724 23.1924 12.0221 23.1924 12.6079 22.6066C13.1937 22.0208 13.1937 21.0711 12.6079 20.4853L4.12262 12L12.6079 3.51472C13.1937 2.92893 13.1937 1.97918 12.6079 1.3934C12.0221 0.807609 11.0724 0.807609 10.4866 1.3934L0.94064 10.9393ZM36.418 10.5L2.0013 10.5L2.0013 13.5L36.418 13.5L36.418 10.5Z"/>
<path d="M36.418 13.5C37.2464 13.5 37.918 12.8284 37.918 12C37.918 11.1716 37.2464 10.5 36.418 10.5L36.418 13.5ZM0.94064 10.9393C0.354855 11.5251 0.354855 12.4749 0.940639 13.0607L10.4866 22.6066C11.0724 23.1924 12.0221 23.1924 12.6079 22.6066C13.1937 22.0208 13.1937 21.0711 12.6079 20.4853L4.12262 12L12.6079 3.51472C13.1937 2.92893 13.1937 1.97918 12.6079 1.3934C12.0221 0.807609 11.0724 0.807609 10.4866 1.3934L0.94064 10.9393ZM36.418 10.5L2.0013 10.5L2.0013 13.5L36.418 13.5L36.418 10.5Z"/>
</svg>
