<svg width="38" height="24" viewBox="0 0 38 24" fill="none" xmlns="http://www.w3.org/2000/svg">
<path d="M2 10.5C1.17157 10.5 0.5 11.1716 0.5 12C0.5 12.8284 1.17157 13.5 2 13.5V10.5ZM37.4773 13.0607C38.0631 12.4749 38.0631 11.5251 37.4773 10.9393L27.9314 1.3934C27.3456 0.807611 26.3959 0.807611 25.8101 1.3934C25.2243 1.97919 25.2243 2.92893 25.8101 3.51472L34.2953 12L25.8101 20.4853C25.2243 21.0711 25.2243 22.0208 25.8101 22.6066C26.3959 23.1924 27.3456 23.1924 27.9314 22.6066L37.4773 13.0607ZM2 13.5H36.4167V10.5H2V13.5Z"/>
<path d="M2 10.5C1.17157 10.5 0.5 11.1716 0.5 12C0.5 12.8284 1.17157 13.5 2 13.5V10.5ZM37.4773 13.0607C38.0631 12.4749 38.0631 11.5251 37.4773 10.9393L27.9314 1.3934C27.3456 0.807611 26.3959 0.807611 25.8101 1.3934C25.2243 1.97919 25.2243 2.92893 25.8101 3.51472L34.2953 12L25.8101 20.4853C25.2243 21.0711 25.2243 22.0208 25.8101 22.6066C26.3959 23.1924 27.3456 23.1924 27.9314 22.6066L37.4773 13.0607ZM2 13.5H36.4167V10.5H2V13.5Z"/>
</svg>
